<svg width="95" height="27" viewBox="0 0 95 27" fill="none" xmlns="http://www.w3.org/2000/svg">
<g filter="url(#filter0_d_6_134)">
<rect x="6" y="2" width="83" height="15" rx="7.5" fill="url(#paint0_linear_6_134)"/>
<rect x="5" y="1" width="85" height="17" rx="8.5" stroke="#957300" stroke-width="2"/>
</g>
<g filter="url(#filter1_d_6_134)">
<path d="M26.1362 8H25.0794C25.0169 7.69602 24.9075 7.42898 24.7512 7.19886C24.5978 6.96875 24.4103 6.77557 24.1887 6.61932C23.97 6.46023 23.7271 6.34091 23.46 6.26136C23.193 6.18182 22.9146 6.14205 22.6248 6.14205C22.0964 6.14205 21.6177 6.27557 21.1887 6.54261C20.7626 6.80966 20.4231 7.20312 20.1703 7.72301C19.9203 8.2429 19.7953 8.88068 19.7953 9.63636C19.7953 10.392 19.9203 11.0298 20.1703 11.5497C20.4231 12.0696 20.7626 12.4631 21.1887 12.7301C21.6177 12.9972 22.0964 13.1307 22.6248 13.1307C22.9146 13.1307 23.193 13.0909 23.46 13.0114C23.7271 12.9318 23.97 12.8139 24.1887 12.6577C24.4103 12.4986 24.5978 12.304 24.7512 12.0739C24.9075 11.8409 25.0169 11.5739 25.0794 11.2727H26.1362C26.0566 11.7187 25.9118 12.1179 25.7015 12.4702C25.4913 12.8224 25.2299 13.1222 24.9174 13.3693C24.6049 13.6136 24.2541 13.7997 23.8649 13.9276C23.4785 14.0554 23.0652 14.1193 22.6248 14.1193C21.8805 14.1193 21.2186 13.9375 20.639 13.5739C20.0595 13.2102 19.6035 12.6932 19.2711 12.0227C18.9387 11.3523 18.7725 10.5568 18.7725 9.63636C18.7725 8.71591 18.9387 7.92045 19.2711 7.25C19.6035 6.57955 20.0595 6.0625 20.639 5.69886C21.2186 5.33523 21.8805 5.15341 22.6248 5.15341C23.0652 5.15341 23.4785 5.21733 23.8649 5.34517C24.2541 5.47301 24.6049 5.66051 24.9174 5.90767C25.2299 6.15199 25.4913 6.45028 25.7015 6.80256C25.9118 7.15199 26.0566 7.55114 26.1362 8ZM28.7132 5.27273V14H27.7076V5.27273H28.7132ZM33.2995 14.1364C32.6689 14.1364 32.1248 13.9972 31.6674 13.7188C31.2129 13.4375 30.862 13.0455 30.6149 12.5426C30.3706 12.0369 30.2484 11.4489 30.2484 10.7784C30.2484 10.108 30.3706 9.51705 30.6149 9.00568C30.862 8.49148 31.2058 8.09091 31.6461 7.80398C32.0893 7.5142 32.6064 7.36932 33.1973 7.36932C33.5382 7.36932 33.8748 7.42614 34.2072 7.53977C34.5396 7.65341 34.8422 7.83807 35.1149 8.09375C35.3876 8.34659 35.6049 8.68182 35.7669 9.09943C35.9288 9.51705 36.0098 10.0312 36.0098 10.642V11.0682H30.9643V10.1989H34.987C34.987 9.82955 34.9132 9.5 34.7654 9.21023C34.6206 8.92045 34.4132 8.69176 34.1433 8.52415C33.8762 8.35653 33.5609 8.27273 33.1973 8.27273C32.7967 8.27273 32.4501 8.37216 32.1575 8.57102C31.8677 8.76705 31.6447 9.02273 31.4885 9.33807C31.3322 9.65341 31.2541 9.99148 31.2541 10.3523V10.9318C31.2541 11.4261 31.3393 11.8452 31.5098 12.1889C31.6831 12.5298 31.9231 12.7898 32.2299 12.9688C32.5368 13.1449 32.8933 13.233 33.2995 13.233C33.5637 13.233 33.8024 13.196 34.0154 13.1222C34.2314 13.0455 34.4174 12.9318 34.5737 12.7812C34.7299 12.6278 34.8507 12.4375 34.9359 12.2102L35.9075 12.483C35.8052 12.8125 35.6333 13.1023 35.3919 13.3523C35.1504 13.5994 34.8521 13.7926 34.497 13.9318C34.1419 14.0682 33.7427 14.1364 33.2995 14.1364ZM39.4657 14.1534C39.051 14.1534 38.6745 14.0753 38.3365 13.919C37.9984 13.7599 37.7299 13.5312 37.5311 13.233C37.3322 12.9318 37.2328 12.5682 37.2328 12.142C37.2328 11.767 37.3066 11.4631 37.4544 11.2301C37.6021 10.9943 37.7995 10.8097 38.0467 10.6761C38.2939 10.5426 38.5666 10.4432 38.8649 10.3778C39.166 10.3097 39.4686 10.2557 39.7725 10.2159C40.1703 10.1648 40.4927 10.1264 40.7399 10.1009C40.9899 10.0724 41.1717 10.0256 41.2853 9.96023C41.4018 9.89489 41.46 9.78125 41.46 9.61932V9.58523C41.46 9.16477 41.345 8.83807 41.1149 8.60511C40.8876 8.37216 40.5424 8.25568 40.0794 8.25568C39.5993 8.25568 39.2228 8.3608 38.9501 8.57102C38.6774 8.78125 38.4856 9.00568 38.3748 9.24432L37.4203 8.90341C37.5907 8.50568 37.818 8.19602 38.1021 7.97443C38.389 7.75 38.7015 7.59375 39.0396 7.50568C39.3805 7.41477 39.7157 7.36932 40.0453 7.36932C40.2555 7.36932 40.497 7.39489 40.7697 7.44602C41.0453 7.49432 41.3109 7.59517 41.5666 7.74858C41.8251 7.90199 42.0396 8.13352 42.21 8.44318C42.3805 8.75284 42.4657 9.16761 42.4657 9.6875V14H41.46V13.1136H41.4089C41.3407 13.2557 41.2271 13.4077 41.068 13.5696C40.9089 13.7315 40.6973 13.8693 40.4331 13.983C40.1689 14.0966 39.8464 14.1534 39.4657 14.1534ZM39.6191 13.25C40.0169 13.25 40.3521 13.1719 40.6248 13.0156C40.9004 12.8594 41.1078 12.6577 41.247 12.4105C41.389 12.1634 41.46 11.9034 41.46 11.6307V10.7102C41.4174 10.7614 41.3237 10.8082 41.1788 10.8509C41.0368 10.8906 40.872 10.9261 40.6845 10.9574C40.4998 10.9858 40.3194 11.0114 40.1433 11.0341C39.97 11.054 39.8294 11.071 39.7214 11.0852C39.46 11.1193 39.2157 11.1747 38.9885 11.2514C38.764 11.3253 38.5822 11.4375 38.443 11.5881C38.3066 11.7358 38.2385 11.9375 38.2385 12.1932C38.2385 12.5426 38.3677 12.8068 38.6262 12.9858C38.8876 13.1619 39.2186 13.25 39.6191 13.25ZM45.307 10.0625V14H44.3013V7.45455H45.2729V8.47727H45.3581C45.5115 8.14489 45.7445 7.87784 46.057 7.67614C46.3695 7.47159 46.7729 7.36932 47.2672 7.36932C47.7104 7.36932 48.0982 7.46023 48.4306 7.64205C48.763 7.82102 49.0215 8.09375 49.2061 8.46023C49.3908 8.82386 49.4831 9.28409 49.4831 9.84091V14H48.4775V9.90909C48.4775 9.39489 48.3439 8.99432 48.0769 8.70739C47.8098 8.41761 47.4434 8.27273 46.9775 8.27273C46.6564 8.27273 46.3695 8.34233 46.1167 8.48153C45.8667 8.62074 45.6692 8.82386 45.5243 9.09091C45.3794 9.35795 45.307 9.68182 45.307 10.0625ZM52.3265 10.0625V14H51.3208V7.45455H52.2924V8.47727H52.3777C52.5311 8.14489 52.764 7.87784 53.0765 7.67614C53.389 7.47159 53.7924 7.36932 54.2868 7.36932C54.7299 7.36932 55.1177 7.46023 55.4501 7.64205C55.7825 7.82102 56.041 8.09375 56.2257 8.46023C56.4103 8.82386 56.5027 9.28409 56.5027 9.84091V14H55.497V9.90909C55.497 9.39489 55.3635 8.99432 55.0964 8.70739C54.8294 8.41761 54.4629 8.27273 53.997 8.27273C53.676 8.27273 53.389 8.34233 53.1362 8.48153C52.8862 8.62074 52.6887 8.82386 52.5439 9.09091C52.399 9.35795 52.3265 9.68182 52.3265 10.0625ZM61.0847 14.1364C60.454 14.1364 59.91 13.9972 59.4526 13.7188C58.998 13.4375 58.6472 13.0455 58.4 12.5426C58.1557 12.0369 58.0336 11.4489 58.0336 10.7784C58.0336 10.108 58.1557 9.51705 58.4 9.00568C58.6472 8.49148 58.9909 8.09091 59.4313 7.80398C59.8745 7.5142 60.3915 7.36932 60.9824 7.36932C61.3233 7.36932 61.66 7.42614 61.9924 7.53977C62.3248 7.65341 62.6273 7.83807 62.9 8.09375C63.1728 8.34659 63.3901 8.68182 63.552 9.09943C63.714 9.51705 63.7949 10.0312 63.7949 10.642V11.0682H58.7495V10.1989H62.7722C62.7722 9.82955 62.6983 9.5 62.5506 9.21023C62.4057 8.92045 62.1983 8.69176 61.9284 8.52415C61.6614 8.35653 61.3461 8.27273 60.9824 8.27273C60.5819 8.27273 60.2353 8.37216 59.9426 8.57102C59.6529 8.76705 59.4299 9.02273 59.2736 9.33807C59.1174 9.65341 59.0392 9.99148 59.0392 10.3523V10.9318C59.0392 11.4261 59.1245 11.8452 59.2949 12.1889C59.4682 12.5298 59.7083 12.7898 60.0151 12.9688C60.3219 13.1449 60.6784 13.233 61.0847 13.233C61.3489 13.233 61.5875 13.196 61.8006 13.1222C62.0165 13.0455 62.2026 12.9318 62.3588 12.7812C62.5151 12.6278 62.6358 12.4375 62.7211 12.2102L63.6926 12.483C63.5904 12.8125 63.4185 13.1023 63.177 13.3523C62.9355 13.5994 62.6373 13.7926 62.2821 13.9318C61.927 14.0682 61.5279 14.1364 61.0847 14.1364ZM69.9611 8.92045L69.0577 9.17614C69.0009 9.02557 68.9171 8.87926 68.8063 8.73722C68.6983 8.59233 68.5506 8.47301 68.3631 8.37926C68.1756 8.28551 67.9355 8.23864 67.6429 8.23864C67.2424 8.23864 66.9086 8.33097 66.6415 8.51562C66.3773 8.69744 66.2452 8.92898 66.2452 9.21023C66.2452 9.46023 66.3361 9.65767 66.5179 9.80256C66.6998 9.94744 66.9838 10.0682 67.3702 10.1648L68.3418 10.4034C68.927 10.5455 69.3631 10.7628 69.65 11.0554C69.937 11.3452 70.0804 11.7187 70.0804 12.1761C70.0804 12.5511 69.9725 12.8864 69.7566 13.1818C69.5435 13.4773 69.2452 13.7102 68.8617 13.8807C68.4782 14.0511 68.0321 14.1364 67.5236 14.1364C66.856 14.1364 66.3034 13.9915 65.8659 13.7017C65.4284 13.4119 65.1515 12.9886 65.035 12.4318L65.9895 12.1932C66.0804 12.5455 66.2523 12.8097 66.5051 12.9858C66.7608 13.1619 67.0946 13.25 67.5066 13.25C67.9753 13.25 68.3475 13.1506 68.623 12.9517C68.9015 12.75 69.0407 12.5085 69.0407 12.2273C69.0407 12 68.9611 11.8097 68.802 11.6562C68.6429 11.5 68.3986 11.3835 68.0691 11.3068L66.9782 11.0511C66.3787 10.9091 65.9384 10.6889 65.6571 10.3906C65.3787 10.0895 65.2395 9.71307 65.2395 9.26136C65.2395 8.89205 65.3432 8.56534 65.5506 8.28125C65.7608 7.99716 66.0463 7.77415 66.4071 7.61222C66.7708 7.45028 67.1827 7.36932 67.6429 7.36932C68.2907 7.36932 68.7992 7.51136 69.1685 7.79545C69.5407 8.07955 69.8049 8.45455 69.9611 8.92045ZM76.2306 8.92045L75.3272 9.17614C75.2704 9.02557 75.1866 8.87926 75.0758 8.73722C74.9679 8.59233 74.8201 8.47301 74.6326 8.37926C74.4451 8.28551 74.2051 8.23864 73.9125 8.23864C73.5119 8.23864 73.1781 8.33097 72.911 8.51562C72.6468 8.69744 72.5147 8.92898 72.5147 9.21023C72.5147 9.46023 72.6056 9.65767 72.7875 9.80256C72.9693 9.94744 73.2534 10.0682 73.6397 10.1648L74.6113 10.4034C75.1966 10.5455 75.6326 10.7628 75.9196 11.0554C76.2065 11.3452 76.35 11.7187 76.35 12.1761C76.35 12.5511 76.242 12.8864 76.0261 13.1818C75.813 13.4773 75.5147 13.7102 75.1312 13.8807C74.7477 14.0511 74.3017 14.1364 73.7931 14.1364C73.1255 14.1364 72.573 13.9915 72.1355 13.7017C71.698 13.4119 71.421 12.9886 71.3045 12.4318L72.2591 12.1932C72.35 12.5455 72.5218 12.8097 72.7747 12.9858C73.0304 13.1619 73.3642 13.25 73.7761 13.25C74.2449 13.25 74.617 13.1506 74.8926 12.9517C75.171 12.75 75.3102 12.5085 75.3102 12.2273C75.3102 12 75.2306 11.8097 75.0716 11.6562C74.9125 11.5 74.6681 11.3835 74.3386 11.3068L73.2477 11.0511C72.6483 10.9091 72.2079 10.6889 71.9267 10.3906C71.6483 10.0895 71.5091 9.71307 71.5091 9.26136C71.5091 8.89205 71.6127 8.56534 71.8201 8.28125C72.0304 7.99716 72.3159 7.77415 72.6767 7.61222C73.0403 7.45028 73.4522 7.36932 73.9125 7.36932C74.5602 7.36932 75.0687 7.51136 75.438 7.79545C75.8102 8.07955 76.0744 8.45455 76.2306 8.92045Z" fill="white"/>
</g>
<defs>
<filter id="filter0_d_6_134" x="0" y="0" width="95" height="27" filterUnits="userSpaceOnUse" color-interpolation-filters="sRGB">
<feFlood flood-opacity="0" result="BackgroundImageFix"/>
<feColorMatrix in="SourceAlpha" type="matrix" values="0 0 0 0 0 0 0 0 0 0 0 0 0 0 0 0 0 0 127 0" result="hardAlpha"/>
<feOffset dy="4"/>
<feGaussianBlur stdDeviation="2"/>
<feComposite in2="hardAlpha" operator="out"/>
<feColorMatrix type="matrix" values="0 0 0 0 0 0 0 0 0 0 0 0 0 0 0 0 0 0 0.25 0"/>
<feBlend mode="normal" in2="BackgroundImageFix" result="effect1_dropShadow_6_134"/>
<feBlend mode="normal" in="SourceGraphic" in2="effect1_dropShadow_6_134" result="shape"/>
</filter>
<filter id="filter1_d_6_134" x="18.7725" y="5.15341" width="59.5775" height="11" filterUnits="userSpaceOnUse" color-interpolation-filters="sRGB">
<feFlood flood-opacity="0" result="BackgroundImageFix"/>
<feColorMatrix in="SourceAlpha" type="matrix" values="0 0 0 0 0 0 0 0 0 0 0 0 0 0 0 0 0 0 127 0" result="hardAlpha"/>
<feOffset dx="1" dy="1"/>
<feGaussianBlur stdDeviation="0.5"/>
<feComposite in2="hardAlpha" operator="out"/>
<feColorMatrix type="matrix" values="0 0 0 0 0 0 0 0 0 0 0 0 0 0 0 0 0 0 0.25 0"/>
<feBlend mode="normal" in2="BackgroundImageFix" result="effect1_dropShadow_6_134"/>
<feBlend mode="normal" in="SourceGraphic" in2="effect1_dropShadow_6_134" result="shape"/>
</filter>
<linearGradient id="paint0_linear_6_134" x1="47.5" y1="2" x2="47.5" y2="17" gradientUnits="userSpaceOnUse">
<stop stop-color="#FDFF88"/>
<stop offset="1" stop-color="#CB9E2C"/>
</linearGradient>
</defs>
</svg>
