<svg width="171" height="56" viewBox="0 0 171 56" fill="none" xmlns="http://www.w3.org/2000/svg">
<g filter="url(#filter0_i_6_116)">
<path d="M73.6681 20.2801C72.3055 25.3521 66.8662 19.2746 62.6341 20.2801C52.7495 22.6286 52.156 34.4576 44.2439 38.5337C37.0565 42.2365 1.74878 24.7772 0.107625 41.576C-0.463268 47.4196 7.37918 53.7595 11.1417 55.2662C18.598 58.252 28.1102 50.7114 35.6619 49.1817C43.2223 47.6502 48.5063 53.6256 55.278 49.1817C62.5642 44.4001 68.809 27.1442 77.3462 26.3647C85.9248 25.5814 88.6531 38.8297 95.7363 41.576L115.352 49.1817C123.013 52.1519 135.665 48.7601 148.455 46.1394C155.021 44.7938 167.829 45.8706 170.523 35.4915C172.338 28.4973 161.556 32.7102 155.811 30.9281C146.342 27.9912 136.373 25.8605 127.613 20.2801C120.029 15.4495 118.506 6.99879 110.448 3.54767C104.096 0.82708 99.982 1.34733 93.2843 2.02654C86.9177 2.67216 81.6968 0.786843 77.3462 6.58994C73.7859 11.3388 75.0427 15.1638 73.6681 20.2801Z" fill="#CFF2FB"/>
</g>
<path d="M52.4661 29.4935C49.5006 35.5781 44.7964 38.0062 45.0068 38.6203C46.2498 42.2485 56.1959 31.0147 56.1959 31.0147C56.1959 31.0147 58.1788 27.7871 59.9255 26.4513C64.0426 23.3029 66.35 27.5943 71.1143 26.4513C75.185 25.4747 78.1003 24.9872 79.8168 20.3667C80.8213 17.6627 81.4319 17.0545 82.3033 14.2822C84.0199 8.8216 87.514 5.97134 92.2489 5.15536C99.2489 3.94905 104.366 4.88883 110.897 8.19763C118.13 11.8619 119.763 21.4584 127.059 24.9301C132.218 27.385 136.478 30.2657 141.977 29.4935C145.028 29.0652 148.256 31.8001 150.68 29.4935C152.278 27.9724 138.966 25.9168 132.032 21.8878C124.732 17.6469 120.803 7.55168 113.384 3.63423C106.032 -0.247705 101.443 -0.571069 93.4922 0.592045C85.9467 1.69592 76.3431 1.47943 74.5 10.5C73.9112 13.3815 74 15.9577 74 19C74 20.5212 71.1143 23.2512 70 21.8878C67.5135 18.8455 59.2584 19.5906 57.439 21.8879C55.6196 24.1852 53.8052 26.746 52.4661 29.4935Z" fill="#EFFFFF"/>
<path d="M10.4677 43.0971C11.0505 40.7539 12.2164 38.8865 14.1973 38.5337C21.0762 37.3086 24.3027 37.4013 30.3591 41.576C31.8842 42.6273 35.3158 44.6517 36.5751 46.1394C37.8344 47.6271 25.8456 50.748 19.1702 49.1816C17.2042 48.7203 15.9432 48.8588 14.1973 47.6605C12.4009 46.4274 9.86795 45.5082 10.4677 43.0971Z" fill="#B1DAF5"/>
<defs>
<filter id="filter0_i_6_116" x="0.078064" y="1.48318" width="173.648" height="55.4757" filterUnits="userSpaceOnUse" color-interpolation-filters="sRGB">
<feFlood flood-opacity="0" result="BackgroundImageFix"/>
<feBlend mode="normal" in="SourceGraphic" in2="BackgroundImageFix" result="shape"/>
<feColorMatrix in="SourceAlpha" type="matrix" values="0 0 0 0 0 0 0 0 0 0 0 0 0 0 0 0 0 0 127 0" result="hardAlpha"/>
<feOffset dx="3" dy="1"/>
<feGaussianBlur stdDeviation="2"/>
<feComposite in2="hardAlpha" operator="arithmetic" k2="-1" k3="1"/>
<feColorMatrix type="matrix" values="0 0 0 0 1 0 0 0 0 0.9875 0 0 0 0 0.9875 0 0 0 1 0"/>
<feBlend mode="normal" in2="shape" result="effect1_innerShadow_6_116"/>
</filter>
</defs>
</svg>
