<svg width="263" height="157" viewBox="0 0 263 157" fill="none" xmlns="http://www.w3.org/2000/svg">
<g filter="url(#filter0_i_6_112)">
<path d="M37.9429 1.78828C22.1285 4.0411 0 23.121 0 23.121V128.261C0 128.261 8.30242 123.073 12.7856 119.118C18.7906 113.821 20.4696 107.617 27.1612 103.881C35.7396 99.0915 42.2435 98.5485 51.1205 102.357C56.2902 104.575 59.5939 106.183 63.1001 111.5C67.4777 118.138 64.488 125.327 67.892 132.832C75.1129 148.753 86.0351 152.298 100.237 155.689C113.185 158.78 121.192 156.062 133.78 151.118C148.806 145.216 153.808 132.278 168.521 125.213C180.2 119.606 187.408 113.084 199.668 116.071C207.887 118.074 211.463 123.225 218.835 128.261C225.481 132.801 228.063 140.451 235.607 140.451C243.151 140.451 246.327 133.989 252.378 128.261C255.839 124.986 259.265 124.262 260.764 119.118C263.85 108.532 247.081 115.173 239.201 109.976C232.055 105.263 230.071 91.5228 222.429 94.7381C218.96 96.1978 218.571 100.441 215.242 102.357C211.382 104.578 207.668 107.4 204.46 103.881C202.219 101.422 203.6 97.9549 202.064 94.7381C197.686 85.5688 190.128 85.2341 181.699 85.5955C176.367 85.8241 173.614 88.1491 168.521 90.1668C165.696 91.286 164.15 94.368 161.333 93.2143C157.228 91.5326 160.827 84.4318 158.937 79.5004C154.258 67.2915 145.646 63.3479 134.978 62.739C127.723 62.3249 123.263 64.1375 117.009 68.8341C112.726 72.05 111.196 83.624 107.425 79.5004C104.916 76.7574 106.823 72.973 106.227 68.8341C104.095 54.0261 103.244 44.7592 96.6431 32.2636C82.8345 6.12261 62.5489 -1.71694 37.9429 1.78828Z" fill="#CFF2FB"/>
</g>
<path d="M53 24C50.9821 20.4494 49.087 17.9892 47.0911 14.42C39.1305 0.184427 8.44237 23.3145 0 29.6313V37.237C0 37.237 3.12661 37.4104 8.55152 38.7581C13.9764 40.1058 16.7163 42.6773 22.2268 43.3215C29.5405 44.1765 35.8707 46.8609 40.875 40.2792C43.0934 37.3617 41.3509 31.3255 44.6046 31.1524C47.3485 31.0065 47.3314 35.3031 49.5775 37.237C53.3442 40.4802 56.1605 41.8004 60.7664 41.8004C65.3723 41.8004 71.2683 42.8095 71.9553 37.237C72.3453 34.0738 71.2883 31.9287 69.4689 29.6313C65.7371 24.9193 60.7354 33.6999 55.7935 31.1524C52.9287 29.6756 54.7748 27.1229 53 24Z" fill="#9DE4F3"/>
<path d="M36.5 2.00001C24.4346 4.19276 16.6091 10.437 8.5 16.5C5.35766 18.8495 0 23 0 23V29.8467C0 29.8467 10.2383 30.9409 16.0597 29.8467C25.7057 28.0337 29.5113 16.7581 39.2285 17.7207C42.9484 18.0892 45.2883 18.2601 48.496 20.7522C52.0824 23.5384 52.0953 28.1137 55.4467 31.3624C60.7394 36.4931 65.6508 33.9095 71.6648 37.4254C73.512 38.5054 74.3467 39.7604 76.2986 40.457C80.7496 42.0453 83.6667 34.9747 87.883 37.4254C91.112 39.3024 91.7104 42.6774 93.6752 46.52C96.7148 52.4646 98.1858 56.2401 99.4674 63.1932C101.058 71.8248 94.1108 80.4783 99.4674 85.9295C101.726 88.2279 103.559 88.7984 106.418 88.961C109.708 89.1482 112.032 88.743 114.527 85.9295C116.32 83.9073 118.911 72 117 69.5C115.089 67 112.014 82.7334 107.5 79C103.769 75.9145 109.618 65.5 103.5 49.5C97 32.5 95.3973 19.6261 76.2986 7.50002C63.098 -0.881223 51.0131 -0.637589 36.5 2.00001Z" fill="#EFFFFF"/>
<path d="M141.575 87.4344C137.791 86.2093 140.528 79.1492 142.818 75.2653C144.979 71.6005 147.607 65.3862 151.5 68.5C155.25 71.5 156.618 73.1059 158.5 78C161 84.5 159.514 90.9789 162 92.5C164.338 93.9306 166.514 90.4895 169 89.5C175.073 87.0831 179.731 85 186.117 85C191.09 85 193.241 84.7426 197 88C198.731 89.5 201.811 93 202.492 95.5C203.426 98.928 204.512 105.657 207.465 105.688C213.606 105.752 219.217 92.5 227.799 93C232.399 93.2681 233.47 99.874 237.302 103C240.159 105.33 241.329 110.251 244.762 110.251C249.734 110.251 255.83 111.772 260.899 111.772C264.5 111.772 260.899 122.42 258 123.5C256.159 124.186 258.139 122.289 254.707 122.42C250.313 122.588 247.382 123.467 243.518 120.899C239.252 118.064 241.012 112.562 237.302 108.73C234.311 105.641 231.232 100.279 227.357 99.6034C223.393 98.912 220.052 106.021 216.168 107.209C212.284 108.397 211.376 110.725 207.465 111.772C205.047 112.42 203.866 108.208 202.492 105.688C200.006 101.125 200.001 97.598 196.276 93.5189C192.38 89.2517 188.817 90.4766 183.844 90.4766C177.367 90.4766 172.382 94.9284 166.439 98.0823C162.848 99.9881 162.502 101.694 158.98 99.6034C155.8 97.7161 156.844 91.2944 155.25 87.4344C153.232 82.546 153.509 76.6385 149.034 76.7864C146.204 76.88 144.312 88.3204 141.575 87.4344Z" fill="#EFFFFF"/>
<path d="M103.036 143.716C101.212 141.756 100.074 140.45 99.3059 137.632C98.5383 134.814 97.5894 132.126 99.3059 130.026C101.477 127.37 103.7 133.289 106.765 133.068C110.016 132.834 110.969 128.629 114.224 128.505C119.077 128.319 122.742 131.954 124.17 137.632C124.884 140.471 125.278 142.595 124.17 145.237C122.343 149.596 118.227 148.368 114.224 148.28C109.619 148.178 106.495 147.436 103.036 143.716Z" fill="#9DE4F3"/>
<path d="M134.116 120.899C137.258 119.316 139.721 119.188 142.818 120.899C146.993 123.206 151.132 128.087 149.034 133.068C147.201 137.423 143.067 135.561 139.089 136.111C135.712 136.577 133.022 138.736 130.386 136.111C128.358 134.091 127.604 131.683 127.9 128.505C128.288 124.331 130.941 122.499 134.116 120.899Z" fill="#9DE4F3"/>
<defs>
<filter id="filter0_i_6_112" x="0" y="1" width="264.139" height="157" filterUnits="userSpaceOnUse" color-interpolation-filters="sRGB">
<feFlood flood-opacity="0" result="BackgroundImageFix"/>
<feBlend mode="normal" in="SourceGraphic" in2="BackgroundImageFix" result="shape"/>
<feColorMatrix in="SourceAlpha" type="matrix" values="0 0 0 0 0 0 0 0 0 0 0 0 0 0 0 0 0 0 127 0" result="hardAlpha"/>
<feOffset dx="3" dy="1"/>
<feGaussianBlur stdDeviation="2"/>
<feComposite in2="hardAlpha" operator="arithmetic" k2="-1" k3="1"/>
<feColorMatrix type="matrix" values="0 0 0 0 1 0 0 0 0 1 0 0 0 0 1 0 0 0 1 0"/>
<feBlend mode="normal" in2="shape" result="effect1_innerShadow_6_112"/>
</filter>
</defs>
</svg>
