<svg width="205" height="77" viewBox="0 0 205 77" fill="none" xmlns="http://www.w3.org/2000/svg">
<g filter="url(#filter0_i_6_113)">
<path d="M1.15432 43.4906C-2.19719 31.0157 16.3951 31.1047 26.9005 32.8426C33.8173 33.9869 39.8704 41.5494 46.5166 41.9694C56.1395 42.5776 50.3975 22.5983 57.5507 14.589C70.6413 -0.0681837 99.9653 -1.53519 109.043 20.6736C111.435 26.5254 106.854 32.3957 110.269 37.406C115.254 44.7203 122.306 32.5396 129.885 34.3638C141.036 37.0477 148.111 48.7962 158.083 54.1385C166.851 58.8355 202.486 37.634 204.672 58.7019C205.149 63.3035 200.427 63.7347 197.316 66.3076C170.085 88.8224 161.991 70.0463 142.145 55.6596C124.332 42.7464 104.382 86.4734 89.4269 66.3076C86.3514 62.1604 88.9154 56.6577 85.7489 52.6174C75.6974 39.7919 44.7936 54.2844 33.0305 55.6596C22.5548 56.8843 5.58148 59.9692 1.15432 43.4906Z" fill="#CFF2FB"/>
</g>
<path d="M81.1122 10.0257C75.1085 11.226 72.1709 14.4779 67.4369 19.1525C60.6544 25.8497 57.2312 43.8815 50.0319 48.054C38.9641 54.4687 25.6353 37.1968 13.9788 45.0117C11.3219 46.7931 8.83794 53.9861 5.49997 51.5C0.527193 47.7964 -0.780301 38.9824 1.99998 36C3.63262 34.2487 11.8076 31.3215 13.9788 31.3215C22.6813 31.3215 32.627 31.3215 42.5727 38.9272C44.2702 40.2253 45.9919 41.9928 47.5455 40.4483C49.0527 38.9499 47.3402 36.7266 47.5455 34.3638C48.6039 22.186 52.7943 17.0379 61 10.0257C67.0627 4.84479 73.7633 1.90673 81.1122 0.898875C92.4069 -0.650092 99.6067 4.35228 108.463 13.0679C113.018 17.5512 117.204 19.7584 118.409 26.7581C118.909 29.6646 116.998 31.9469 118.409 34.3638C120.384 37.7475 123.778 35.1793 127.111 34.3638C133.327 32.8427 135.683 33.5959 142.03 37.4061C146.744 40.2366 153.409 46.9193 158.191 49.5751C164.521 53.0906 161.626 54.5355 168.5 53.5C179.377 51.8615 194.499 41.2904 203 53.5C204.836 56.1368 205.243 58.4577 204 61.5C202.757 64.5423 204.19 54.1385 193.001 58.7019C186.031 61.5446 162.478 59.1414 155.705 55.6597C150.241 52.8511 146.175 46.5073 140.786 43.4906C135.325 40.4337 129.597 40.4483 124.625 41.9695C118.973 43.6984 112.496 43.2028 109 37.5C106.378 33.2229 109.845 30.072 108.463 25C107.081 19.928 105.03 17.0172 99.7604 13.0679C93.3332 8.25105 88.5506 8.53849 81.1122 10.0257Z" fill="#E4FFFF"/>
<path d="M79.8691 23.7158C76.1254 24.454 71.9257 26.7198 72.4098 31.3215C72.7604 34.6544 74.9411 35.8671 77.3826 37.406C79.5834 38.7932 81.1231 38.9204 83.5987 38.9271C87.1332 38.9368 91.8286 40.1707 92.3012 35.8849C92.5915 33.2521 91.1711 31.8748 89.8147 29.8003C87.102 25.6514 84.1562 22.8704 79.8691 23.7158Z" fill="#9DE4F3"/>
<defs>
<filter id="filter0_i_6_113" x="0.755859" y="3.75201" width="206.949" height="73.9987" filterUnits="userSpaceOnUse" color-interpolation-filters="sRGB">
<feFlood flood-opacity="0" result="BackgroundImageFix"/>
<feBlend mode="normal" in="SourceGraphic" in2="BackgroundImageFix" result="shape"/>
<feColorMatrix in="SourceAlpha" type="matrix" values="0 0 0 0 0 0 0 0 0 0 0 0 0 0 0 0 0 0 127 0" result="hardAlpha"/>
<feOffset dx="3" dy="1"/>
<feGaussianBlur stdDeviation="2"/>
<feComposite in2="hardAlpha" operator="arithmetic" k2="-1" k3="1"/>
<feColorMatrix type="matrix" values="0 0 0 0 1 0 0 0 0 1 0 0 0 0 1 0 0 0 1 0"/>
<feBlend mode="normal" in2="shape" result="effect1_innerShadow_6_113"/>
</filter>
</defs>
</svg>
