<svg width="209" height="137" viewBox="0 0 209 137" fill="none" xmlns="http://www.w3.org/2000/svg">
<g filter="url(#filter0_i_3_34)">
<path d="M28.7768 100.759C15.5882 96.8532 5.11088 88.4813 3.03058 71.8575C-2.18672 30.166 48.3774 7.44627 72.9131 1.88535C82.1008 0.217985 94.292 -0.678886 102.337 6.44875C106.234 9.9008 105.168 16.6763 109.693 18.6178C114.417 20.6448 116.974 13.5152 121.953 14.0544C129.09 14.8272 139.967 26.297 141.57 35.3503C142.517 40.6995 135.915 45.271 139.118 49.0405C142.413 52.9192 145.701 43.349 150.152 44.4771C159.637 46.8815 173.363 67.7217 180.802 74.8997C187.131 73.2615 203.66 68.0278 209 63.5V118.5C192.616 139.714 174.553 139.103 152.604 131.182C143.396 127.859 125.469 120.863 130.535 103.801C131.595 100.232 135.439 96.1956 135.439 96.1956C135.439 96.1956 112.107 93.4257 97.4332 96.1956C84.1039 98.7118 77.6547 105.803 64.331 108.365C61.325 108.943 42.6408 112.759 43.4889 108.365C44.5863 102.678 53.2582 100.098 56.9749 99.2379C47.7855 99.1261 37.6678 103.392 28.7768 100.759Z" fill="#CFF2FB"/>
</g>
<path d="M7.08628 62.7306C7.23121 58.5339 8.00425 52.6797 10.8159 47.5193C13.3023 42.9559 14.5455 38.3925 14.5455 35.3503C14.5455 33.829 4.66369 48.5446 2.11344 58.1675C0.757343 63.2845 0.0904332 66.5635 0.870248 71.8575C1.64049 77.0865 3.24672 79.7678 5.84307 84.0268C9.56048 90.1247 12.8319 92.5195 18.2752 96.1958C23.2503 99.5559 35.0838 103.021 35 101.5C34.8096 98.044 30.7073 96.1958 28.2209 94.6747C24.3368 92.2985 21.4475 92.2185 18.2752 88.5902C15.7176 85.6649 10.8869 81.9124 9.5727 77.942C7.74122 72.4085 6.8803 68.6954 7.08628 62.7306Z" fill="#EFFFFF"/>
<path d="M142.596 45.9981C141.384 42.703 143.839 40.4847 143.839 36.8713C143.839 24.7023 130.713 17.1953 126.434 14.0543C120.483 9.6854 112.4 22.554 107.5 16C102.564 9.39741 106.409 3.80588 96.5973 1.88515C65.5171 -4.19927 30.4524 19.9556 31.9505 20.1389C44.3827 21.6602 49.9236 16.3139 60.5442 14.0543C71.8294 11.6533 86.1982 4.07491 96.5973 14.0543C101.052 18.3296 99.1105 25.8941 104.057 29.2656C111.967 34.6578 118.329 19.3828 126.434 23.1812C129.078 24.42 134.773 32.4987 136.38 35.3502C143.519 48.0159 128.656 47.9455 127.678 55.1249C127.021 59.9484 150.073 49.2613 155.028 50.5616C166.109 53.4693 168.118 72.1258 178.649 76.4209C184.978 79.002 202.585 79.424 209 78V61C203.277 64.2468 188.098 75.487 182 73C170.811 68.4366 166.217 46.575 151.299 42.9559C146.536 41.8006 144.588 51.4153 142.596 45.9981Z" fill="#EFFFFF"/>
<path d="M73.1171 37.6767C64.4127 38.6289 56.8489 45.322 50.7393 37.6767C48.7601 35.2 47.1709 33.5292 47.0097 30.071C46.7106 23.6559 53.4238 23.6195 58.1986 20.9442C65.8187 16.6746 71.0051 15.2285 79.3331 16.3808C85.4354 17.2252 91.7464 15.6049 94.2517 22.4653C95.6381 26.2619 95.4395 29.2173 94.2517 33.1133C91.3224 42.7212 81.4649 36.7635 73.1171 37.6767Z" fill="#9DE4F3"/>
<path d="M27.4627 38.423C28.3726 36.0109 30.3603 36.162 32.4356 35.3807C36.1478 33.9832 41.3297 30.8059 42.3812 35.3807C42.9232 37.7386 42.7303 39.9809 41.138 41.4653C39.5933 42.9053 37.3304 39.5644 36.1652 41.4653C35.2913 42.891 37.0391 44.603 36.1652 46.0287C35 47.9296 33.042 46.7529 31.1923 46.0287C29.5251 45.3759 28.2121 44.9221 27.4627 42.9864C26.8392 41.3758 26.8524 40.0411 27.4627 38.423Z" fill="#9DE4F3"/>
<path d="M153.056 102.28C156.26 101.567 157.41 105.639 160.515 106.844C166.531 109.178 171.503 102.42 176.677 106.844C179.225 109.023 181.314 110.668 181.649 114.449C181.865 116.884 181.387 118.399 180.406 120.534C177.511 126.833 171.38 123.069 165.488 123.576C161.129 123.951 158.582 124.636 154.299 123.576C149.612 122.416 145.537 122.533 143.11 117.491C141.611 114.378 139.989 111.154 141.867 108.365C143.441 106.027 145.825 108.086 148.083 106.844C150.297 105.625 150.667 102.811 153.056 102.28Z" fill="#B1DAF5"/>
<path d="M184.136 119.013C184.985 113.474 190.782 113.518 195.325 114.449C200.415 115.493 208.161 119.866 205.27 125.097C203.078 129.065 199.194 127.342 195.325 126.618C190.384 125.694 183.215 125.024 184.136 119.013Z" fill="#B1DAF5"/>
<defs>
<filter id="filter0_i_3_34" x="2.65576" y="0.716125" width="209.344" height="136.537" filterUnits="userSpaceOnUse" color-interpolation-filters="sRGB">
<feFlood flood-opacity="0" result="BackgroundImageFix"/>
<feBlend mode="normal" in="SourceGraphic" in2="BackgroundImageFix" result="shape"/>
<feColorMatrix in="SourceAlpha" type="matrix" values="0 0 0 0 0 0 0 0 0 0 0 0 0 0 0 0 0 0 127 0" result="hardAlpha"/>
<feOffset dx="3" dy="1"/>
<feGaussianBlur stdDeviation="2"/>
<feComposite in2="hardAlpha" operator="arithmetic" k2="-1" k3="1"/>
<feColorMatrix type="matrix" values="0 0 0 0 1 0 0 0 0 1 0 0 0 0 1 0 0 0 1 0"/>
<feBlend mode="normal" in2="shape" result="effect1_innerShadow_3_34"/>
</filter>
</defs>
</svg>
