<svg width="38" height="60" viewBox="0 0 38 60" fill="none" xmlns="http://www.w3.org/2000/svg">
<g filter="url(#filter0_i_6_128)">
<path d="M5.56663 41.2815C4.13989 38.4668 0.837555 35.197 0.837555 35.197C0.837555 35.197 6.56602 36.6419 9.11344 39.7604C11.0638 42.148 12.6602 47.366 12.6602 47.366C12.6602 47.366 13.1161 41.7297 13.8425 38.2392C15.0187 32.5877 17.8681 30.3292 18.5716 24.549C19.7689 14.711 12.6602 0.210907 12.6602 0.210907C12.6602 0.210907 23.5767 14.6491 23.3007 26.0702C23.1823 30.9664 21.3279 33.3667 20.9361 38.2392C20.6511 41.7846 20.9361 47.366 20.9361 47.366C20.9361 47.366 23.9687 41.7415 26.8475 39.7604C30.5341 37.2232 37.4879 38.2392 37.4879 38.2392C37.4879 38.2392 28.0887 41.5454 24.4829 47.366C22.5525 50.4823 20.9361 56.4928 20.9361 56.4928C20.9361 56.4928 16.0052 59.11 12.6602 59.5351C10.8224 59.7686 7.93117 59.5351 7.93117 59.5351C7.93117 59.5351 8.62182 52.9494 7.93117 48.8872C7.39984 45.7621 6.92485 43.961 5.56663 41.2815Z" fill="#82E200"/>
</g>
<defs>
<filter id="filter0_i_6_128" x="0.837555" y="0.210907" width="36.6503" height="60.428" filterUnits="userSpaceOnUse" color-interpolation-filters="sRGB">
<feFlood flood-opacity="0" result="BackgroundImageFix"/>
<feBlend mode="normal" in="SourceGraphic" in2="BackgroundImageFix" result="shape"/>
<feColorMatrix in="SourceAlpha" type="matrix" values="0 0 0 0 0 0 0 0 0 0 0 0 0 0 0 0 0 0 127 0" result="hardAlpha"/>
<feOffset dy="2"/>
<feGaussianBlur stdDeviation="0.5"/>
<feComposite in2="hardAlpha" operator="arithmetic" k2="-1" k3="1"/>
<feColorMatrix type="matrix" values="0 0 0 0 0.619048 0 0 0 0 1 0 0 0 0 0 0 0 0 1 0"/>
<feBlend mode="normal" in2="shape" result="effect1_innerShadow_6_128"/>
</filter>
</defs>
</svg>
