<svg width="56" height="85" viewBox="0 0 56 85" fill="none" xmlns="http://www.w3.org/2000/svg">
<g filter="url(#filter0_i_6_130)">
<path d="M36.0992 64.2815C37.6305 67.7453 37.5808 70.4386 39.646 73.4083C42.128 76.9775 53.8332 84.0562 53.8332 84.0562C53.8332 84.0562 47.6387 69.2846 47.9219 62.7604C48.3114 53.7849 50.2864 39.9434 50.2864 39.9434C50.2864 39.9434 45.3151 30.2861 44.375 23.2109C43.7527 18.5265 43.8386 15.7438 44.375 11.0419C44.8632 6.76303 46.7396 0.393921 46.7396 0.393921C46.7396 0.393921 41.9963 6.15771 40.8282 11.0419C39.742 15.584 40.3701 18.4953 40.8282 23.2109C41.5526 30.667 47.8251 34.5401 45.5573 41.4645C44.9109 43.4383 43.1928 46.0279 43.1928 46.0279C43.1928 46.0279 42.4488 36.5045 40.8282 30.8166C37.3286 18.5335 34.4152 3.96583 24.2765 4.95732C17.0852 5.66057 10.0893 20.1687 10.0893 20.1687C10.0893 20.1687 19.2269 12.3615 25.4587 15.6053C32.1441 19.0851 33.739 25.0426 36.0844 33.8037L36.0992 33.8588C38.252 41.9005 38.4637 56.6758 38.4637 56.6758C38.4637 56.6758 30.9838 40.4555 23.0942 35.38C15.2046 30.3045 0.631104 32.3377 0.631104 32.3377C0.631104 32.3377 13.8145 34.318 20.7297 39.9434C28.7748 46.488 31.3931 53.6366 36.0992 64.2815Z" fill="#9EFF00"/>
</g>
<path d="M52.6509 79.4928C50.5884 79.3674 49.7686 77.6386 47.9218 76.4505C46.075 75.2625 44.7605 75.1372 43.1927 73.4083C41.1487 71.1541 39.7186 70.3882 38.4636 67.3238C37.9824 66.1486 36.2451 61.0331 36.0991 59.7181C35.8926 57.8585 24.2764 38.4222 24.2764 38.4222C24.2764 38.4222 30.6346 46.5047 33.7346 50.5913C35.5539 52.9895 39.43 61.795 39.6459 61.2392C40.9518 57.8788 39.6459 51.9683 39.6459 46.0279C39.6459 41.4645 39.6023 38.5332 38.4636 33.8589C36.9764 27.7538 34.9169 23.2109 32.5523 18.6476C30.2616 14.2267 27.1919 13.2221 23.0942 12.563C19.8546 12.042 14.8183 14.0842 14.8183 14.0842C14.8183 14.0842 20.3352 7.78416 24.2764 7.99959C28.4023 8.22511 31.3701 9.52072 33.7346 15.6053C36.4188 22.5125 37.8544 26.4884 39.6459 33.8589C40.7823 38.5342 40.4678 41.5495 42.0105 46.028C42.4288 47.2423 43.1927 49.0702 43.1927 49.0702C44.9517 49.7943 46.146 48.4174 47.9218 49.0702C52.4925 50.7504 52.8002 56.7905 53.8332 62.7604C54.9413 69.165 57.7449 79.8025 52.6509 79.4928Z" fill="#D7FF96" fill-opacity="0.4"/>
<defs>
<filter id="filter0_i_6_130" x="0.631104" y="0.393921" width="54.2021" height="85.6623" filterUnits="userSpaceOnUse" color-interpolation-filters="sRGB">
<feFlood flood-opacity="0" result="BackgroundImageFix"/>
<feBlend mode="normal" in="SourceGraphic" in2="BackgroundImageFix" result="shape"/>
<feColorMatrix in="SourceAlpha" type="matrix" values="0 0 0 0 0 0 0 0 0 0 0 0 0 0 0 0 0 0 127 0" result="hardAlpha"/>
<feOffset dx="1" dy="4"/>
<feGaussianBlur stdDeviation="1"/>
<feComposite in2="hardAlpha" operator="arithmetic" k2="-1" k3="1"/>
<feColorMatrix type="matrix" values="0 0 0 0 0.637963 0 0 0 0 0.883333 0 0 0 0 0.239236 0 0 0 1 0"/>
<feBlend mode="normal" in2="shape" result="effect1_innerShadow_6_130"/>
</filter>
</defs>
</svg>
