<svg width="32" height="50" viewBox="0 0 32 50" fill="none" xmlns="http://www.w3.org/2000/svg">
<g filter="url(#filter0_i_6_127)">
<path d="M7.70482 31.1264C5.77604 26.2441 0.611206 20.4784 0.611206 20.4784C0.611206 20.4784 7.347 23.7094 10.0694 28.0841C12.267 31.6157 13.6162 38.732 13.6162 38.732C13.6162 38.732 13.7514 31.1589 14.7984 26.563C15.96 21.4642 18.5758 19.5641 19.5275 14.3939C20.4852 9.19147 19.5275 0.703705 19.5275 0.703705C19.5275 0.703705 23.2203 9.71593 23.0743 15.915C22.9416 21.548 20.0708 24.0132 19.5275 29.6052C19.1839 33.1419 19.5275 38.732 19.5275 38.732C19.5275 38.732 23.5413 34.5444 25.4388 31.1264C29.0889 24.5516 30.1679 11.3516 30.1679 11.3516C30.1679 11.3516 33.7311 26.5279 30.1679 34.1686C27.9779 38.8649 23.7714 38.3814 21.892 43.2954C21.2474 44.9809 20.7098 47.8588 20.7098 47.8588C20.7098 47.8588 17.15 49.524 14.7984 49.38C12.8969 49.2635 10.0694 47.8588 10.0694 47.8588C10.0694 47.8588 10.0438 37.047 7.70482 31.1264Z" fill="#93FF00"/>
</g>
<path d="M10.0694 37.2109C10.0694 33.61 7.70483 28.0841 7.70483 28.0841C7.70483 28.0841 10.5216 29.4723 11.2516 34.1686C12.4339 41.7743 14.7984 43.2954 14.7984 43.2954C14.7984 43.2954 14.1947 37.6976 14.7984 34.1686C15.521 29.9451 15.7803 27.4626 17.163 23.5207C18.2704 20.3635 21.8921 15.915 21.8921 15.915C21.8921 15.915 19.2758 23.1519 18.3453 28.0841C17.4671 32.7382 17.163 38.732 18.3453 40.2532C19.437 41.6579 19.3934 40.8753 21.8921 38.732C28.9857 32.6475 30.1679 21.9996 30.1679 21.9996C30.1679 21.9996 31.3624 29.5895 28.9857 32.6475C25.4389 37.2109 22.1509 39.9742 20.7098 43.2954C19.9981 44.9357 19.5275 46.3377 19.5275 46.3377C19.5275 46.3377 16.6965 48.0467 14.7984 47.8588C13.3427 47.7148 11.2516 46.3377 11.2516 46.3377C11.2516 46.3377 10.0694 40.7751 10.0694 37.2109Z" fill="#D7FF96" fill-opacity="0.4"/>
<defs>
<filter id="filter0_i_6_127" x="0.611206" y="0.703705" width="32.1404" height="49.6851" filterUnits="userSpaceOnUse" color-interpolation-filters="sRGB">
<feFlood flood-opacity="0" result="BackgroundImageFix"/>
<feBlend mode="normal" in="SourceGraphic" in2="BackgroundImageFix" result="shape"/>
<feColorMatrix in="SourceAlpha" type="matrix" values="0 0 0 0 0 0 0 0 0 0 0 0 0 0 0 0 0 0 127 0" result="hardAlpha"/>
<feOffset dx="1" dy="1"/>
<feGaussianBlur stdDeviation="2"/>
<feComposite in2="hardAlpha" operator="arithmetic" k2="-1" k3="1"/>
<feColorMatrix type="matrix" values="0 0 0 0 0.492616 0 0 0 0 0.870833 0 0 0 0 0.239479 0 0 0 1 0"/>
<feBlend mode="normal" in2="shape" result="effect1_innerShadow_6_127"/>
</filter>
</defs>
</svg>
