<svg width="23" height="34" viewBox="0 0 23 34" fill="none" xmlns="http://www.w3.org/2000/svg">
<g filter="url(#filter0_i_6_126)">
<path d="M3.71477 20.4924C2.98804 16.6187 0.167969 11.3656 0.167969 11.3656C0.167969 11.3656 2.47539 14.9443 3.71477 17.4501C5.37759 20.8121 7.26158 26.5769 7.26158 26.5769C9.62612 25.0558 8.44385 8.32332 7.26158 0.717651C7.26158 0.717651 9.21511 4.68692 10.8084 12.8867C11.3794 15.8253 10.8084 29.6192 10.8084 29.6192L11.9907 23.5346C11.9907 23.5346 13.5891 17.522 15.5375 15.929C17.5244 14.3044 22.6311 12.8867 22.6311 12.8867C22.6311 12.8867 18.1755 15.1449 16.7197 17.4501C15.4177 19.512 14.3552 23.9203 14.3552 26.5769C14.3552 29.6192 15.5375 32.6614 15.5375 32.6614C11.9907 34.1826 9.49776 32.1856 6.07931 32.6614C6.07931 32.6614 4.47312 24.5346 3.71477 20.4924Z" fill="#93FF00"/>
</g>
<path d="M13.1729 31.1403H7.26153C7.26153 31.1403 6.50647 29.3073 6.07926 28.098C4.87092 24.6778 3.71472 18.9713 3.71472 18.9713C3.71472 18.9713 6.07926 26.5769 7.26153 28.098C7.44777 28.3377 8.4438 26.5769 8.4438 25.0558C8.4438 25.0558 9.62606 15.929 9.62606 12.8867C9.62606 12.8867 10.5708 14.3601 10.8083 18.9713C10.8083 21.4509 10.8083 28.098 9.62606 29.6192H10.8083C11.8407 29.6192 11.9906 29.4264 11.9906 28.098C11.9906 25.0558 14.3551 18.9713 14.3551 18.9713C14.3551 18.9713 13.4019 22.6243 13.1729 25.0558C12.9506 27.4147 13.1729 31.1403 13.1729 31.1403Z" fill="#D7FF96" fill-opacity="0.4"/>
<defs>
<filter id="filter0_i_6_126" x="0.167969" y="0.717651" width="23.4631" height="33.5258" filterUnits="userSpaceOnUse" color-interpolation-filters="sRGB">
<feFlood flood-opacity="0" result="BackgroundImageFix"/>
<feBlend mode="normal" in="SourceGraphic" in2="BackgroundImageFix" result="shape"/>
<feColorMatrix in="SourceAlpha" type="matrix" values="0 0 0 0 0 0 0 0 0 0 0 0 0 0 0 0 0 0 127 0" result="hardAlpha"/>
<feOffset dx="1" dy="1"/>
<feGaussianBlur stdDeviation="2"/>
<feComposite in2="hardAlpha" operator="arithmetic" k2="-1" k3="1"/>
<feColorMatrix type="matrix" values="0 0 0 0 0.624319 0 0 0 0 0.808333 0 0 0 0 0.373854 0 0 0 1 0"/>
<feBlend mode="normal" in2="shape" result="effect1_innerShadow_6_126"/>
</filter>
</defs>
</svg>
