<svg width="56" height="84" viewBox="0 0 56 84" fill="none" xmlns="http://www.w3.org/2000/svg">
<g filter="url(#filter0_i_6_129)">
<path d="M11.8227 24.3517C11.8227 30.6664 0 39.563 0 39.563V59.3377L30.739 82.1547L44.9262 82.1547C38.1505 69.3738 41.8646 40.7944 55.5666 51.7321C48.3161 40.1294 39.9378 40.6316 35.4681 54.7743C35.4681 54.7743 30.0213 49.8305 30.739 45.6476C33.1035 31.8665 47.8221 30.5161 53.2021 28.9151C41.0141 24.3324 32.2038 29.4078 24.8276 42.6053C24.8276 39.563 35.4681 6.09809 53.2021 16.746C53.2021 16.746 50.0491 12.0302 47.2907 10.6615C37.8326 5.96812 28.3744 21.3094 26.0099 27.394C23.602 33.5902 18.9163 42.6053 18.9163 42.6053C16.5518 34.9996 29.5567 4.57692 50.8376 0.0135193C50.8376 0.0135193 38.1823 0.346613 33.1035 1.53469C20.0986 4.57696 11.8227 18.2672 11.8227 24.3517Z" fill="#9EFF00"/>
</g>
<path d="M37.8326 63.9011C37.5546 68.6399 40.1972 77.5913 40.1972 77.5913L26.0099 83.6758L1.18228 45.6475C1.18228 45.6475 9.5147 39.9861 11.8227 33.4785C12.4288 31.7695 12.5897 32.2371 13.005 30.4362C13.5465 28.0881 14.1872 22.8305 16.5518 19.7882C19.3602 16.1748 18.4486 17.2862 21.2808 13.7037C25.1205 8.84705 25.4432 5.82839 30.739 4.5769C33.4636 3.93302 42.5617 1.53464 42.5617 1.53464C42.5617 1.53464 32.1665 6.5172 30.739 7.61917C24.8277 12.1826 23.6454 13.7037 18.9163 22.8305C15.9962 28.4661 14.5967 36.3166 16.5518 42.6053C17.9573 47.126 19.5257 47.498 21.2808 42.6053C28.3745 22.8305 33.1035 19.7882 33.1035 19.7882C33.1035 19.7882 28.2592 28.7054 26.0099 34.9996C24.9712 37.9061 21.2808 47.1687 21.2808 47.1687H24.8277L27.1922 42.6053L30.739 36.5207L35.4681 31.9573L42.5617 28.915L47.2908 27.3939L41.3794 30.4362C39.0709 31.6243 37.5507 31.7309 35.4681 33.4785C33.2804 35.3141 31.926 36.5697 30.739 39.563C29.8738 41.7447 27.1922 46.2405 27.1922 48.6898C27.1922 51.139 28.3745 51.7321 30.739 54.7743C33.1035 57.8166 35.4681 62.38 35.4681 62.38C35.4681 62.38 37.1797 56.4545 37.8326 54.7743C39.0149 51.7321 38.7815 50.5051 41.3794 48.6898C42.3015 48.0454 44.9262 47.1687 44.9262 47.1687H50.2638C50.6238 47.1617 50.8376 47.1687 50.8376 47.1687C50.8376 47.1687 50.5038 47.1728 49.9596 47.1771C48.0803 47.2444 43.7429 47.678 42.5617 50.2109C39.0149 57.8166 38.0783 59.7125 37.8326 63.9011Z" fill="#D7FF96" fill-opacity="0.4"/>
<defs>
<filter id="filter0_i_6_129" x="0" y="0.0135193" width="56.5666" height="83.1412" filterUnits="userSpaceOnUse" color-interpolation-filters="sRGB">
<feFlood flood-opacity="0" result="BackgroundImageFix"/>
<feBlend mode="normal" in="SourceGraphic" in2="BackgroundImageFix" result="shape"/>
<feColorMatrix in="SourceAlpha" type="matrix" values="0 0 0 0 0 0 0 0 0 0 0 0 0 0 0 0 0 0 127 0" result="hardAlpha"/>
<feOffset dx="1" dy="3"/>
<feGaussianBlur stdDeviation="0.5"/>
<feComposite in2="hardAlpha" operator="arithmetic" k2="-1" k3="1"/>
<feColorMatrix type="matrix" values="0 0 0 0 0.570039 0 0 0 0 0.920833 0 0 0 0 0 0 0 0 1 0"/>
<feBlend mode="normal" in2="shape" result="effect1_innerShadow_6_129"/>
</filter>
</defs>
</svg>
