<svg width="95" height="27" viewBox="0 0 95 27" fill="none" xmlns="http://www.w3.org/2000/svg">
<g filter="url(#filter0_d_6_137)">
<rect x="6" y="2" width="83" height="15" rx="7.5" fill="url(#paint0_linear_6_137)"/>
<rect x="5" y="1" width="85" height="17" rx="8.5" stroke="#004BA8" stroke-width="2"/>
</g>
<g filter="url(#filter1_d_6_137)">
<path d="M18.7267 14V5.27273H19.7836V9.15909H24.437V5.27273H25.4938V14H24.437V10.0966H19.7836V14H18.7267ZM29.3993 14.1534C28.9846 14.1534 28.6081 14.0753 28.2701 13.919C27.932 13.7599 27.6635 13.5312 27.4647 13.233C27.2658 12.9318 27.1664 12.5682 27.1664 12.142C27.1664 11.767 27.2402 11.4631 27.388 11.2301C27.5357 10.9943 27.7331 10.8097 27.9803 10.6761C28.2275 10.5426 28.5002 10.4432 28.7985 10.3778C29.0996 10.3097 29.4022 10.2557 29.7061 10.2159C30.1039 10.1648 30.4263 10.1264 30.6735 10.1009C30.9235 10.0724 31.1053 10.0256 31.2189 9.96023C31.3354 9.89489 31.3936 9.78125 31.3936 9.61932V9.58523C31.3936 9.16477 31.2786 8.83807 31.0485 8.60511C30.8212 8.37216 30.476 8.25568 30.013 8.25568C29.5328 8.25568 29.1564 8.3608 28.8837 8.57102C28.611 8.78125 28.4192 9.00568 28.3084 9.24432L27.3539 8.90341C27.5243 8.50568 27.7516 8.19602 28.0357 7.97443C28.3226 7.75 28.6351 7.59375 28.9732 7.50568C29.3141 7.41477 29.6493 7.36932 29.9789 7.36932C30.1891 7.36932 30.4306 7.39489 30.7033 7.44602C30.9789 7.49432 31.2445 7.59517 31.5002 7.74858C31.7587 7.90199 31.9732 8.13352 32.1436 8.44318C32.3141 8.75284 32.3993 9.16761 32.3993 9.6875V14H31.3936V13.1136H31.3425C31.2743 13.2557 31.1607 13.4077 31.0016 13.5696C30.8425 13.7315 30.6309 13.8693 30.3667 13.983C30.1025 14.0966 29.78 14.1534 29.3993 14.1534ZM29.5527 13.25C29.9505 13.25 30.2857 13.1719 30.5584 13.0156C30.834 12.8594 31.0414 12.6577 31.1806 12.4105C31.3226 12.1634 31.3936 11.9034 31.3936 11.6307V10.7102C31.351 10.7614 31.2573 10.8082 31.1124 10.8509C30.9703 10.8906 30.8056 10.9261 30.6181 10.9574C30.4334 10.9858 30.253 11.0114 30.0769 11.0341C29.9036 11.054 29.763 11.071 29.655 11.0852C29.3936 11.1193 29.1493 11.1747 28.9221 11.2514C28.6976 11.3253 28.5158 11.4375 28.3766 11.5881C28.2402 11.7358 28.1721 11.9375 28.1721 12.1932C28.1721 12.5426 28.3013 12.8068 28.5598 12.9858C28.8212 13.1619 29.1522 13.25 29.5527 13.25ZM34.2349 16.4545V7.45455H35.2065V8.49432H35.3258C35.3997 8.38068 35.502 8.2358 35.6326 8.05966C35.7662 7.88068 35.9565 7.72159 36.2037 7.58239C36.4537 7.44034 36.7917 7.36932 37.2179 7.36932C37.769 7.36932 38.2548 7.5071 38.6752 7.78267C39.0957 8.05824 39.4238 8.44886 39.6596 8.95455C39.8954 9.46023 40.0133 10.0568 40.0133 10.7443C40.0133 11.4375 39.8954 12.0384 39.6596 12.5469C39.4238 13.0526 39.0971 13.4446 38.6795 13.723C38.2619 13.9986 37.7804 14.1364 37.2349 14.1364C36.8145 14.1364 36.4778 14.0668 36.225 13.9276C35.9721 13.7855 35.7775 13.625 35.6412 13.446C35.5048 13.2642 35.3997 13.1136 35.3258 12.9943H35.2406V16.4545H34.2349ZM35.2235 10.7273C35.2235 11.2216 35.296 11.6577 35.4409 12.0355C35.5858 12.4105 35.7974 12.7045 36.0758 12.9176C36.3542 13.1278 36.6951 13.233 37.0985 13.233C37.519 13.233 37.8699 13.1222 38.1511 12.9006C38.4352 12.6761 38.6483 12.375 38.7903 11.9972C38.9352 11.6165 39.0076 11.1932 39.0076 10.7273C39.0076 10.267 38.9366 9.85227 38.7946 9.48295C38.6554 9.1108 38.4437 8.81676 38.1596 8.60085C37.8784 8.3821 37.5247 8.27273 37.0985 8.27273C36.6895 8.27273 36.3457 8.37642 36.0673 8.58381C35.7889 8.78835 35.5787 9.07528 35.4366 9.4446C35.2946 9.81108 35.2235 10.2386 35.2235 10.7273ZM41.5474 16.4545V7.45455H42.519V8.49432H42.6383C42.7122 8.38068 42.8145 8.2358 42.9451 8.05966C43.0787 7.88068 43.269 7.72159 43.5162 7.58239C43.7662 7.44034 44.1042 7.36932 44.5304 7.36932C45.0815 7.36932 45.5673 7.5071 45.9877 7.78267C46.4082 8.05824 46.7363 8.44886 46.9721 8.95455C47.2079 9.46023 47.3258 10.0568 47.3258 10.7443C47.3258 11.4375 47.2079 12.0384 46.9721 12.5469C46.7363 13.0526 46.4096 13.4446 45.992 13.723C45.5744 13.9986 45.0929 14.1364 44.5474 14.1364C44.127 14.1364 43.7903 14.0668 43.5375 13.9276C43.2846 13.7855 43.09 13.625 42.9537 13.446C42.8173 13.2642 42.7122 13.1136 42.6383 12.9943H42.5531V16.4545H41.5474ZM42.536 10.7273C42.536 11.2216 42.6085 11.6577 42.7534 12.0355C42.8983 12.4105 43.1099 12.7045 43.3883 12.9176C43.6667 13.1278 44.0076 13.233 44.411 13.233C44.8315 13.233 45.1824 13.1222 45.4636 12.9006C45.7477 12.6761 45.9608 12.375 46.1028 11.9972C46.2477 11.6165 46.3201 11.1932 46.3201 10.7273C46.3201 10.267 46.2491 9.85227 46.1071 9.48295C45.9679 9.1108 45.7562 8.81676 45.4721 8.60085C45.1909 8.3821 44.8372 8.27273 44.411 8.27273C44.002 8.27273 43.6582 8.37642 43.3798 8.58381C43.1014 8.78835 42.8912 9.07528 42.7491 9.4446C42.6071 9.81108 42.536 10.2386 42.536 10.7273ZM48.8599 14V7.45455H49.8656V14H48.8599ZM49.3713 6.36364C49.1752 6.36364 49.0062 6.29688 48.8642 6.16335C48.725 6.02983 48.6554 5.86932 48.6554 5.68182C48.6554 5.49432 48.725 5.33381 48.8642 5.20028C49.0062 5.06676 49.1752 5 49.3713 5C49.5673 5 49.7349 5.06676 49.8741 5.20028C50.0162 5.33381 50.0872 5.49432 50.0872 5.68182C50.0872 5.86932 50.0162 6.02983 49.8741 6.16335C49.7349 6.29688 49.5673 6.36364 49.3713 6.36364ZM52.7132 10.0625V14H51.7076V7.45455H52.6792V8.47727H52.7644C52.9178 8.14489 53.1507 7.87784 53.4632 7.67614C53.7757 7.47159 54.1792 7.36932 54.6735 7.36932C55.1167 7.36932 55.5044 7.46023 55.8368 7.64205C56.1692 7.82102 56.4277 8.09375 56.6124 8.46023C56.7971 8.82386 56.8894 9.28409 56.8894 9.84091V14H55.8837V9.90909C55.8837 9.39489 55.7502 8.99432 55.4831 8.70739C55.2161 8.41761 54.8496 8.27273 54.3837 8.27273C54.0627 8.27273 53.7757 8.34233 53.5229 8.48153C53.2729 8.62074 53.0755 8.82386 52.9306 9.09091C52.7857 9.35795 52.7132 9.68182 52.7132 10.0625ZM61.4714 14.1364C60.8407 14.1364 60.2967 13.9972 59.8393 13.7188C59.3848 13.4375 59.0339 13.0455 58.7868 12.5426C58.5424 12.0369 58.4203 11.4489 58.4203 10.7784C58.4203 10.108 58.5424 9.51705 58.7868 9.00568C59.0339 8.49148 59.3777 8.09091 59.818 7.80398C60.2612 7.5142 60.7782 7.36932 61.3691 7.36932C61.71 7.36932 62.0467 7.42614 62.3791 7.53977C62.7115 7.65341 63.014 7.83807 63.2868 8.09375C63.5595 8.34659 63.7768 8.68182 63.9387 9.09943C64.1007 9.51705 64.1816 10.0312 64.1816 10.642V11.0682H59.1362V10.1989H63.1589C63.1589 9.82955 63.085 9.5 62.9373 9.21023C62.7924 8.92045 62.585 8.69176 62.3152 8.52415C62.0481 8.35653 61.7328 8.27273 61.3691 8.27273C60.9686 8.27273 60.622 8.37216 60.3294 8.57102C60.0396 8.76705 59.8166 9.02273 59.6603 9.33807C59.5041 9.65341 59.426 9.99148 59.426 10.3523V10.9318C59.426 11.4261 59.5112 11.8452 59.6816 12.1889C59.8549 12.5298 60.095 12.7898 60.4018 12.9688C60.7086 13.1449 61.0652 13.233 61.4714 13.233C61.7356 13.233 61.9743 13.196 62.1873 13.1222C62.4032 13.0455 62.5893 12.9318 62.7456 12.7812C62.9018 12.6278 63.0225 12.4375 63.1078 12.2102L64.0794 12.483C63.9771 12.8125 63.8052 13.1023 63.5637 13.3523C63.3223 13.5994 63.024 13.7926 62.6689 13.9318C62.3137 14.0682 61.9146 14.1364 61.4714 14.1364ZM70.3478 8.92045L69.4444 9.17614C69.3876 9.02557 69.3038 8.87926 69.193 8.73722C69.085 8.59233 68.9373 8.47301 68.7498 8.37926C68.5623 8.28551 68.3223 8.23864 68.0297 8.23864C67.6291 8.23864 67.2953 8.33097 67.0282 8.51562C66.764 8.69744 66.6319 8.92898 66.6319 9.21023C66.6319 9.46023 66.7228 9.65767 66.9047 9.80256C67.0865 9.94744 67.3706 10.0682 67.7569 10.1648L68.7285 10.4034C69.3137 10.5455 69.7498 10.7628 70.0368 11.0554C70.3237 11.3452 70.4672 11.7187 70.4672 12.1761C70.4672 12.5511 70.3592 12.8864 70.1433 13.1818C69.9302 13.4773 69.6319 13.7102 69.2484 13.8807C68.8649 14.0511 68.4189 14.1364 67.9103 14.1364C67.2427 14.1364 66.6902 13.9915 66.2527 13.7017C65.8152 13.4119 65.5382 12.9886 65.4217 12.4318L66.3762 12.1932C66.4672 12.5455 66.639 12.8097 66.8919 12.9858C67.1475 13.1619 67.4814 13.25 67.8933 13.25C68.362 13.25 68.7342 13.1506 69.0098 12.9517C69.2882 12.75 69.4274 12.5085 69.4274 12.2273C69.4274 12 69.3478 11.8097 69.1887 11.6562C69.0297 11.5 68.7853 11.3835 68.4558 11.3068L67.3649 11.0511C66.7654 10.9091 66.3251 10.6889 66.0439 10.3906C65.7654 10.0895 65.6262 9.71307 65.6262 9.26136C65.6262 8.89205 65.7299 8.56534 65.9373 8.28125C66.1475 7.99716 66.4331 7.77415 66.7939 7.61222C67.1575 7.45028 67.5694 7.36932 68.0297 7.36932C68.6774 7.36932 69.1859 7.51136 69.5552 7.79545C69.9274 8.07955 70.1916 8.45455 70.3478 8.92045ZM76.6174 8.92045L75.714 9.17614C75.6571 9.02557 75.5733 8.87926 75.4625 8.73722C75.3546 8.59233 75.2069 8.47301 75.0194 8.37926C74.8319 8.28551 74.5918 8.23864 74.2992 8.23864C73.8986 8.23864 73.5648 8.33097 73.2978 8.51562C73.0336 8.69744 72.9015 8.92898 72.9015 9.21023C72.9015 9.46023 72.9924 9.65767 73.1742 9.80256C73.356 9.94744 73.6401 10.0682 74.0265 10.1648L74.998 10.4034C75.5833 10.5455 76.0194 10.7628 76.3063 11.0554C76.5932 11.3452 76.7367 11.7187 76.7367 12.1761C76.7367 12.5511 76.6287 12.8864 76.4128 13.1818C76.1998 13.4773 75.9015 13.7102 75.5179 13.8807C75.1344 14.0511 74.6884 14.1364 74.1799 14.1364C73.5123 14.1364 72.9597 13.9915 72.5222 13.7017C72.0847 13.4119 71.8077 12.9886 71.6912 12.4318L72.6458 12.1932C72.7367 12.5455 72.9086 12.8097 73.1614 12.9858C73.4171 13.1619 73.7509 13.25 74.1628 13.25C74.6316 13.25 75.0037 13.1506 75.2793 12.9517C75.5577 12.75 75.6969 12.5085 75.6969 12.2273C75.6969 12 75.6174 11.8097 75.4583 11.6562C75.2992 11.5 75.0549 11.3835 74.7253 11.3068L73.6344 11.0511C73.035 10.9091 72.5946 10.6889 72.3134 10.3906C72.035 10.0895 71.8958 9.71307 71.8958 9.26136C71.8958 8.89205 71.9995 8.56534 72.2069 8.28125C72.4171 7.99716 72.7026 7.77415 73.0634 7.61222C73.427 7.45028 73.839 7.36932 74.2992 7.36932C74.9469 7.36932 75.4554 7.51136 75.8248 7.79545C76.1969 8.07955 76.4611 8.45455 76.6174 8.92045Z" fill="white"/>
</g>
<defs>
<filter id="filter0_d_6_137" x="0" y="0" width="95" height="27" filterUnits="userSpaceOnUse" color-interpolation-filters="sRGB">
<feFlood flood-opacity="0" result="BackgroundImageFix"/>
<feColorMatrix in="SourceAlpha" type="matrix" values="0 0 0 0 0 0 0 0 0 0 0 0 0 0 0 0 0 0 127 0" result="hardAlpha"/>
<feOffset dy="4"/>
<feGaussianBlur stdDeviation="2"/>
<feComposite in2="hardAlpha" operator="out"/>
<feColorMatrix type="matrix" values="0 0 0 0 0 0 0 0 0 0 0 0 0 0 0 0 0 0 0.25 0"/>
<feBlend mode="normal" in2="BackgroundImageFix" result="effect1_dropShadow_6_137"/>
<feBlend mode="normal" in="SourceGraphic" in2="effect1_dropShadow_6_137" result="shape"/>
</filter>
<filter id="filter1_d_6_137" x="18.7267" y="5" width="60.0099" height="13.4546" filterUnits="userSpaceOnUse" color-interpolation-filters="sRGB">
<feFlood flood-opacity="0" result="BackgroundImageFix"/>
<feColorMatrix in="SourceAlpha" type="matrix" values="0 0 0 0 0 0 0 0 0 0 0 0 0 0 0 0 0 0 127 0" result="hardAlpha"/>
<feOffset dx="1" dy="1"/>
<feGaussianBlur stdDeviation="0.5"/>
<feComposite in2="hardAlpha" operator="out"/>
<feColorMatrix type="matrix" values="0 0 0 0 0 0 0 0 0 0 0 0 0 0 0 0 0 0 0.25 0"/>
<feBlend mode="normal" in2="BackgroundImageFix" result="effect1_dropShadow_6_137"/>
<feBlend mode="normal" in="SourceGraphic" in2="effect1_dropShadow_6_137" result="shape"/>
</filter>
<linearGradient id="paint0_linear_6_137" x1="47.5" y1="2" x2="47.5" y2="17" gradientUnits="userSpaceOnUse">
<stop stop-color="#88C6FF"/>
<stop offset="1" stop-color="#2C58CB"/>
</linearGradient>
</defs>
</svg>
