<svg width="95" height="27" viewBox="0 0 95 27" fill="none" xmlns="http://www.w3.org/2000/svg">
<g filter="url(#filter0_d_6_140)">
<rect x="6" y="2" width="83" height="15" rx="7.5" fill="url(#paint0_linear_6_140)"/>
<rect x="5" y="1" width="85" height="17" rx="8.5" stroke="#298D00" stroke-width="2"/>
</g>
<g filter="url(#filter1_d_6_140)">
<path d="M30.0236 14V5.27273H31.0804V9.15909H35.7338V5.27273H36.7907V14H35.7338V10.0966H31.0804V14H30.0236ZM41.5144 14.1364C40.8837 14.1364 40.3397 13.9972 39.8823 13.7188C39.4277 13.4375 39.0769 13.0455 38.8297 12.5426C38.5854 12.0369 38.4632 11.4489 38.4632 10.7784C38.4632 10.108 38.5854 9.51705 38.8297 9.00568C39.0769 8.49148 39.4206 8.09091 39.861 7.80398C40.3042 7.5142 40.8212 7.36932 41.4121 7.36932C41.753 7.36932 42.0897 7.42614 42.4221 7.53977C42.7544 7.65341 43.057 7.83807 43.3297 8.09375C43.6025 8.34659 43.8198 8.68182 43.9817 9.09943C44.1436 9.51705 44.2246 10.0312 44.2246 10.642V11.0682H39.1792V10.1989H43.2019C43.2019 9.82955 43.128 9.5 42.9803 9.21023C42.8354 8.92045 42.628 8.69176 42.3581 8.52415C42.0911 8.35653 41.7757 8.27273 41.4121 8.27273C41.0115 8.27273 40.665 8.37216 40.3723 8.57102C40.0826 8.76705 39.8596 9.02273 39.7033 9.33807C39.5471 9.65341 39.4689 9.99148 39.4689 10.3523V10.9318C39.4689 11.4261 39.5542 11.8452 39.7246 12.1889C39.8979 12.5298 40.138 12.7898 40.4448 12.9688C40.7516 13.1449 41.1081 13.233 41.5144 13.233C41.7786 13.233 42.0172 13.196 42.2303 13.1222C42.4462 13.0455 42.6323 12.9318 42.7885 12.7812C42.9448 12.6278 43.0655 12.4375 43.1507 12.2102L44.1223 12.483C44.0201 12.8125 43.8482 13.1023 43.6067 13.3523C43.3652 13.5994 43.0669 13.7926 42.7118 13.9318C42.3567 14.0682 41.9576 14.1364 41.5144 14.1364ZM47.6806 14.1534C47.2658 14.1534 46.8894 14.0753 46.5513 13.919C46.2132 13.7599 45.9448 13.5312 45.7459 13.233C45.5471 12.9318 45.4476 12.5682 45.4476 12.142C45.4476 11.767 45.5215 11.4631 45.6692 11.2301C45.8169 10.9943 46.0144 10.8097 46.2615 10.6761C46.5087 10.5426 46.7814 10.4432 47.0797 10.3778C47.3809 10.3097 47.6834 10.2557 47.9874 10.2159C48.3851 10.1648 48.7076 10.1264 48.9547 10.1009C49.2047 10.0724 49.3865 10.0256 49.5002 9.96023C49.6167 9.89489 49.6749 9.78125 49.6749 9.61932V9.58523C49.6749 9.16477 49.5598 8.83807 49.3297 8.60511C49.1025 8.37216 48.7573 8.25568 48.2942 8.25568C47.8141 8.25568 47.4377 8.3608 47.165 8.57102C46.8922 8.78125 46.7005 9.00568 46.5897 9.24432L45.6351 8.90341C45.8056 8.50568 46.0328 8.19602 46.3169 7.97443C46.6039 7.75 46.9164 7.59375 47.2544 7.50568C47.5953 7.41477 47.9306 7.36932 48.2601 7.36932C48.4703 7.36932 48.7118 7.39489 48.9846 7.44602C49.2601 7.49432 49.5257 7.59517 49.7814 7.74858C50.04 7.90199 50.2544 8.13352 50.4249 8.44318C50.5953 8.75284 50.6806 9.16761 50.6806 9.6875V14H49.6749V13.1136H49.6238C49.5556 13.2557 49.4419 13.4077 49.2828 13.5696C49.1238 13.7315 48.9121 13.8693 48.6479 13.983C48.3837 14.0966 48.0613 14.1534 47.6806 14.1534ZM47.834 13.25C48.2317 13.25 48.5669 13.1719 48.8397 13.0156C49.1152 12.8594 49.3226 12.6577 49.4618 12.4105C49.6039 12.1634 49.6749 11.9034 49.6749 11.6307V10.7102C49.6323 10.7614 49.5385 10.8082 49.3936 10.8509C49.2516 10.8906 49.0868 10.9261 48.8993 10.9574C48.7147 10.9858 48.5343 11.0114 48.3581 11.0341C48.1848 11.054 48.0442 11.071 47.9363 11.0852C47.6749 11.1193 47.4306 11.1747 47.2033 11.2514C46.9789 11.3253 46.7971 11.4375 46.6578 11.5881C46.5215 11.7358 46.4533 11.9375 46.4533 12.1932C46.4533 12.5426 46.5826 12.8068 46.8411 12.9858C47.1025 13.1619 47.4334 13.25 47.834 13.25ZM53.5218 5.27273V14H52.5162V5.27273H53.5218ZM58.2104 7.45455V8.30682H54.8184V7.45455H58.2104ZM55.807 5.88636H56.8127V12.125C56.8127 12.4091 56.8539 12.6222 56.9363 12.7642C57.0215 12.9034 57.1294 12.9972 57.2601 13.0455C57.3936 13.0909 57.5343 13.1136 57.682 13.1136C57.7928 13.1136 57.8837 13.108 57.9547 13.0966C58.0257 13.0824 58.0826 13.071 58.1252 13.0625L58.3297 13.9659C58.2615 13.9915 58.1664 14.017 58.0442 14.0426C57.9221 14.071 57.7672 14.0852 57.5797 14.0852C57.2956 14.0852 57.0172 14.0241 56.7445 13.902C56.4746 13.7798 56.2502 13.5938 56.0712 13.3438C55.8951 13.0938 55.807 12.7784 55.807 12.3977V5.88636ZM60.8695 10.0625V14H59.8638V5.27273H60.8695V8.47727H60.9547C61.1081 8.1392 61.3382 7.87074 61.6451 7.67188C61.9547 7.47017 62.3667 7.36932 62.8809 7.36932C63.3269 7.36932 63.7175 7.45881 64.0527 7.63778C64.388 7.81392 64.6479 8.08523 64.8326 8.4517C65.0201 8.81534 65.1138 9.27841 65.1138 9.84091V14H64.1081V9.90909C64.1081 9.3892 63.9732 8.98722 63.7033 8.70312C63.4363 8.41619 63.0655 8.27273 62.5911 8.27273C62.2615 8.27273 61.9661 8.34233 61.7047 8.48153C61.4462 8.62074 61.2417 8.82386 61.0911 9.09091C60.9434 9.35795 60.8695 9.68182 60.8695 10.0625Z" fill="white"/>
</g>
<defs>
<filter id="filter0_d_6_140" x="0" y="0" width="95" height="27" filterUnits="userSpaceOnUse" color-interpolation-filters="sRGB">
<feFlood flood-opacity="0" result="BackgroundImageFix"/>
<feColorMatrix in="SourceAlpha" type="matrix" values="0 0 0 0 0 0 0 0 0 0 0 0 0 0 0 0 0 0 127 0" result="hardAlpha"/>
<feOffset dy="4"/>
<feGaussianBlur stdDeviation="2"/>
<feComposite in2="hardAlpha" operator="out"/>
<feColorMatrix type="matrix" values="0 0 0 0 0 0 0 0 0 0 0 0 0 0 0 0 0 0 0.25 0"/>
<feBlend mode="normal" in2="BackgroundImageFix" result="effect1_dropShadow_6_140"/>
<feBlend mode="normal" in="SourceGraphic" in2="effect1_dropShadow_6_140" result="shape"/>
</filter>
<filter id="filter1_d_6_140" x="30.0236" y="5.27274" width="37.0902" height="10.8807" filterUnits="userSpaceOnUse" color-interpolation-filters="sRGB">
<feFlood flood-opacity="0" result="BackgroundImageFix"/>
<feColorMatrix in="SourceAlpha" type="matrix" values="0 0 0 0 0 0 0 0 0 0 0 0 0 0 0 0 0 0 127 0" result="hardAlpha"/>
<feOffset dx="1" dy="1"/>
<feGaussianBlur stdDeviation="0.5"/>
<feComposite in2="hardAlpha" operator="out"/>
<feColorMatrix type="matrix" values="0 0 0 0 0 0 0 0 0 0 0 0 0 0 0 0 0 0 0.25 0"/>
<feBlend mode="normal" in2="BackgroundImageFix" result="effect1_dropShadow_6_140"/>
<feBlend mode="normal" in="SourceGraphic" in2="effect1_dropShadow_6_140" result="shape"/>
</filter>
<linearGradient id="paint0_linear_6_140" x1="47.5" y1="2" x2="47.5" y2="17" gradientUnits="userSpaceOnUse">
<stop stop-color="#B5FF88"/>
<stop offset="1" stop-color="#55CB2C"/>
</linearGradient>
</defs>
</svg>
