<svg width="94" height="162" viewBox="0 0 94 162" fill="none" xmlns="http://www.w3.org/2000/svg">
<g filter="url(#filter0_i_6_122)">
<path d="M64.1694 59.7316C56.5712 50.8017 42.5115 42.7984 31.244 30.8301C20.6633 19.5911 13.9547 7.4922 0.85144 0.40741C0.85144 0.40741 10.5164 13.1391 13.515 23.2244C15.0485 28.3821 15.3672 31.4992 16.0477 36.9146C17.524 48.6623 18.2302 56.9851 18.5805 68.8584C19.0196 83.7475 19.8468 100.593 22.3795 106.887C26.7955 117.861 28.1705 120.903 36.3095 128.183C44.2923 135.322 50.8325 135.224 59.1039 141.873C63.7902 145.64 65.1782 150.286 70.5012 152.521C73.3409 153.713 78.0993 154.042 78.0993 154.042C78.0993 154.042 76.6456 146.293 78.0993 141.873C79.2628 138.335 81.0712 137.121 83.1647 134.267C85.9391 130.485 88.6071 129.465 90.7629 125.14C94.1045 118.437 94.6871 112.998 93.2956 105.366C92.0619 98.5983 90.2883 94.294 86.9638 88.6331C79.3039 75.59 73.6676 70.8946 64.1694 59.7316Z" fill="#21B600"/>
</g>
<g filter="url(#filter1_i_6_122)">
<path d="M21.113 42.9991C20.3424 34.9725 14.7812 18.661 14.7812 18.661C14.7812 18.661 33.47 42.8587 40.1084 49.0837C48.2201 56.6902 53.6401 59.5566 61.6365 67.3373C70.6077 76.0665 78.2602 79.1209 83.1646 91.6754C85.9675 98.8502 87.2239 103.531 86.9637 111.45C86.7413 118.218 86.9244 120.093 83.1646 125.14C80.506 128.71 70.501 130.625 70.501 125.14C70.501 119.056 60.3702 112.971 60.3702 112.971C60.3702 112.971 56.5711 125.14 61.6365 129.704C65.916 133.559 56.1143 134.487 51.5056 131.225C45.7893 127.179 42.6285 124.221 37.5757 119.056C33.2816 114.666 31.1636 111.465 28.7112 105.366C24.8158 95.6779 23.588 88.7435 23.6458 77.9852C23.7004 67.8171 22.0829 53.1005 21.113 42.9991Z" fill="#44CD0A"/>
</g>
<path d="M66.7021 129.704C57.9711 107.915 50.9528 93.1696 41.3749 71.9007C24.9349 35.3935 17.0181 25.9139 7.18323 6.49194C7.18323 6.49194 18.8032 23.0305 22.3795 29.3089C38.8422 58.2105 54.0385 94.7177 67.9684 128.183C73.2255 140.812 79.3657 161.648 79.3657 161.648H76.8329C76.8329 161.648 71.8854 142.639 66.7021 129.704Z" fill="#006200"/>
<path d="M24.9122 46.0414C24.9122 46.0414 33.007 56.0842 35.0431 64.295C37.0637 72.4433 32.9407 86.5487 36.3095 93.1965C38.6543 97.8238 59.942 105.006 48.973 114.492C36.7283 125.082 28.9404 88.9312 28.7113 79.5063C28.4402 68.3534 27.3965 56.7926 24.9122 46.0414Z" fill="#51B900"/>
<path d="M51.5057 65.8161C49.4196 64.2215 48.7974 60.355 46.4403 61.2527C41.5647 63.1096 50.6497 74.8417 52.7721 76.464C53.7431 77.2063 65.3266 80.4634 64.1693 82.5486C63.2478 84.209 56.6646 81.2519 59.1039 87.112C60.8831 91.3863 70.2229 83.8504 70.5011 79.5063C70.6907 76.5449 67.4822 76.61 65.4357 74.9429C61.0123 71.3397 55.9729 69.2308 51.5057 65.8161Z" fill="#B8E911"/>
<defs>
<filter id="filter0_i_6_122" x="0.85144" y="0.40741" width="96.1486" height="154.634" filterUnits="userSpaceOnUse" color-interpolation-filters="sRGB">
<feFlood flood-opacity="0" result="BackgroundImageFix"/>
<feBlend mode="normal" in="SourceGraphic" in2="BackgroundImageFix" result="shape"/>
<feColorMatrix in="SourceAlpha" type="matrix" values="0 0 0 0 0 0 0 0 0 0 0 0 0 0 0 0 0 0 127 0" result="hardAlpha"/>
<feOffset dx="3" dy="1"/>
<feGaussianBlur stdDeviation="2"/>
<feComposite in2="hardAlpha" operator="arithmetic" k2="-1" k3="1"/>
<feColorMatrix type="matrix" values="0 0 0 0 0 0 0 0 0 0 0 0 0 0 0 0 0 0 0.25 0"/>
<feBlend mode="normal" in2="shape" result="effect1_innerShadow_6_122"/>
</filter>
<filter id="filter1_i_6_122" x="14.7812" y="18.661" width="75.2159" height="115.551" filterUnits="userSpaceOnUse" color-interpolation-filters="sRGB">
<feFlood flood-opacity="0" result="BackgroundImageFix"/>
<feBlend mode="normal" in="SourceGraphic" in2="BackgroundImageFix" result="shape"/>
<feColorMatrix in="SourceAlpha" type="matrix" values="0 0 0 0 0 0 0 0 0 0 0 0 0 0 0 0 0 0 127 0" result="hardAlpha"/>
<feOffset dx="3" dy="1"/>
<feGaussianBlur stdDeviation="2"/>
<feComposite in2="hardAlpha" operator="arithmetic" k2="-1" k3="1"/>
<feColorMatrix type="matrix" values="0 0 0 0 0 0 0 0 0 0.645833 0 0 0 0 0 0 0 0 1 0"/>
<feBlend mode="normal" in2="shape" result="effect1_innerShadow_6_122"/>
</filter>
</defs>
</svg>
