<svg width="80" height="164" viewBox="0 0 80 164" fill="none" xmlns="http://www.w3.org/2000/svg">
<g filter="url(#filter0_i_6_123)">
<path d="M31.6589 17.1399C43.0562 7.26971 79.7805 0.40741 79.7805 0.40741C79.7805 0.40741 81.6369 37.81 70.916 56.6893C63.1681 70.3335 54.6122 79.6282 41.7898 85.5909C31.0926 90.5653 23.9197 93.884 13.9299 87.112C11.7765 85.6522 10.594 84.6713 8.86448 82.5486C6.33177 79.4401 5.11014 60.4597 8.86448 47.5625C13.2566 32.4743 20.8649 26.4876 31.6589 17.1399Z" fill="#21B600"/>
</g>
<g filter="url(#filter1_i_6_123)">
<path d="M13.93 59.7316C12.3818 58.669 11.6184 57.2935 11.3972 55.1682C11.1229 52.5321 11.3973 51.7403 11.3973 49.0837C11.3972 46.0414 12.8279 44.5667 13.93 41.478C16.4626 34.3795 17.729 33.8723 18.9954 32.3512C20.7439 30.251 22.0143 27.9337 24.0608 26.2667C25.1672 25.3654 30.2409 19.6384 36.7244 15.6187C44.2265 10.9675 53.187 8.01306 53.187 8.01306C53.187 8.01306 44.3225 12.5765 41.7898 14.0976C40.4749 14.8873 36.7244 17.1399 30.3926 24.7456C26.4613 29.4678 25.7469 32.3596 25.3272 33.8723C24.7016 36.1265 24.1932 38.2766 22.7944 39.9569C21.5281 41.478 20.8287 45.2013 21.5281 46.0414C22.5172 47.2295 23.2021 44.3254 24.0608 42.9992C25.4187 40.9022 25.6045 39.2908 26.5935 36.9146C27.5826 34.5385 27.8674 33.0144 29.1263 30.8301C30.7187 28.0672 32.0089 26.8474 34.1917 24.7456C37.3026 21.75 39.1657 19.7092 43.0562 18.661C45.9515 17.881 48.0634 16.9239 50.6544 18.661C52.8135 20.1086 54.5986 21.7805 54.4534 24.7456C54.2586 28.7236 49.7139 27.2867 46.8553 29.309L46.7226 29.4029C43.1379 31.9385 41.0308 33.429 37.9908 36.9146C34.4135 41.0163 33.3102 44.2872 30.3926 49.0837C27.8828 53.2098 28.138 58.2728 24.0608 59.7316C22.165 60.41 20.9736 59.7316 18.9954 59.7316C17.0172 59.7316 15.6475 60.9105 13.93 59.7316Z" fill="#44CD0A"/>
</g>
<g filter="url(#filter2_i_6_123)">
<path d="M20.2617 74.9429C19.3741 72.1707 18.6996 70.2862 18.9954 67.3373C19.6325 60.9852 23.9843 59.2249 26.5935 53.6471C30.0366 46.2866 32.719 42.4989 37.9907 36.9146C44.7998 29.7017 50.3247 28.5385 58.2524 23.2244C62.6986 20.2441 69.6497 17.1399 69.6497 17.1399C69.6497 17.1399 68.2985 23.3263 65.8507 26.2667C63.318 29.309 56.7966 37.1774 51.9207 44.5203C48.6426 49.4569 46.051 54.5417 43.0562 59.7316C39.2764 66.2819 42.9002 71.103 37.9907 76.4641C35.0405 79.6857 34.3023 80.0882 30.3926 81.0275C27.9679 81.61 25.3272 81.0275 25.3272 81.0275C22.7161 79.8212 21.266 78.0794 20.2617 74.9429Z" fill="#44CD0A"/>
</g>
<path d="M46.2118 37.9958C44.779 38.4666 43.3727 39.4727 42.5206 37.9348C41.3996 35.9115 44.3042 34.2646 45.8776 32.5688C47.8952 30.3942 49.3866 28.8722 51.8067 29.0525C52.6508 29.1154 53.3229 28.8731 53.8945 29.6894C55.0056 31.2761 50.7491 34.0549 50.7491 34.0549C50.7491 34.0549 48.1986 37.3429 46.2118 37.9958Z" fill="#B8E911"/>
<path d="M27.9935 67.5822L26.529 64.4535C25.6018 60.9837 26.3988 58.0471 27.7604 54.6558C28.733 52.2335 29.6381 51.134 31.1887 49.5513C32.3069 48.41 32.9655 47.2604 34.2652 47.2461C35.8772 47.2283 37.336 48.2942 37.5461 50.7042C37.8119 53.7526 34.7172 53.3776 33.2096 55.644C31.4219 58.3317 30.7137 60.2805 29.4295 63.5479C28.8241 65.0882 27.9935 67.5822 27.9935 67.5822Z" fill="#51B900"/>
<path d="M2.53272 143.394C1.5747 151.122 0 163.169 0 163.169H3.79908C3.79908 163.169 5.44188 151.134 6.33179 143.394C8.30437 126.238 6.67075 116.094 10.1309 99.2811C13.8556 81.1822 16.2031 70.2505 25.3272 55.1682C32.525 43.2701 37.6103 36.8522 48.1216 29.309C54.5882 24.6684 70.2791 19.4451 69.6497 17.1399C69.3051 15.8777 68.3834 15.6187 68.3834 15.6187C67.117 14.0976 54.1858 20.8213 48.1216 24.7456C35.4956 32.9163 29.5526 40.8901 21.5281 55.1682C12.9457 70.4391 11.3415 81.4134 7.59815 99.2811C4.06498 116.146 4.66498 126.193 2.53272 143.394Z" fill="#006200"/>
<defs>
<filter id="filter0_i_6_123" x="6.48499" y="0.40741" width="76.4183" height="91.5276" filterUnits="userSpaceOnUse" color-interpolation-filters="sRGB">
<feFlood flood-opacity="0" result="BackgroundImageFix"/>
<feBlend mode="normal" in="SourceGraphic" in2="BackgroundImageFix" result="shape"/>
<feColorMatrix in="SourceAlpha" type="matrix" values="0 0 0 0 0 0 0 0 0 0 0 0 0 0 0 0 0 0 127 0" result="hardAlpha"/>
<feOffset dx="3" dy="1"/>
<feGaussianBlur stdDeviation="2"/>
<feComposite in2="hardAlpha" operator="arithmetic" k2="-1" k3="1"/>
<feColorMatrix type="matrix" values="0 0 0 0 0.134931 0 0 0 0 0.558333 0 0 0 0 0.134931 0 0 0 1 0"/>
<feBlend mode="normal" in2="shape" result="effect1_innerShadow_6_123"/>
</filter>
<filter id="filter1_i_6_123" x="11.2753" y="8.01306" width="46.1864" height="53.2425" filterUnits="userSpaceOnUse" color-interpolation-filters="sRGB">
<feFlood flood-opacity="0" result="BackgroundImageFix"/>
<feBlend mode="normal" in="SourceGraphic" in2="BackgroundImageFix" result="shape"/>
<feColorMatrix in="SourceAlpha" type="matrix" values="0 0 0 0 0 0 0 0 0 0 0 0 0 0 0 0 0 0 127 0" result="hardAlpha"/>
<feOffset dx="3" dy="1"/>
<feGaussianBlur stdDeviation="2"/>
<feComposite in2="hardAlpha" operator="arithmetic" k2="-1" k3="1"/>
<feColorMatrix type="matrix" values="0 0 0 0 0.141667 0 0 0 0 0.5 0 0 0 0 0.141667 0 0 0 1 0"/>
<feBlend mode="normal" in2="shape" result="effect1_innerShadow_6_123"/>
</filter>
<filter id="filter2_i_6_123" x="18.9248" y="17.1399" width="53.7248" height="65.1465" filterUnits="userSpaceOnUse" color-interpolation-filters="sRGB">
<feFlood flood-opacity="0" result="BackgroundImageFix"/>
<feBlend mode="normal" in="SourceGraphic" in2="BackgroundImageFix" result="shape"/>
<feColorMatrix in="SourceAlpha" type="matrix" values="0 0 0 0 0 0 0 0 0 0 0 0 0 0 0 0 0 0 127 0" result="hardAlpha"/>
<feOffset dx="3" dy="1"/>
<feGaussianBlur stdDeviation="2"/>
<feComposite in2="hardAlpha" operator="arithmetic" k2="-1" k3="1"/>
<feColorMatrix type="matrix" values="0 0 0 0 0 0 0 0 0 0 0 0 0 0 0 0 0 0 0.25 0"/>
<feBlend mode="normal" in2="shape" result="effect1_innerShadow_6_123"/>
</filter>
</defs>
</svg>
