<svg width="87" height="53" viewBox="0 0 87 53" fill="none" xmlns="http://www.w3.org/2000/svg">
<g filter="url(#filter0_i_6_125)">
<path d="M37.3833 37.3939C32.3025 41.1249 32.8828 48.7542 27.2525 51.0841C19.3968 54.3348 8.20992 48.6138 0.658928 46.5207C-0.0609109 37.8556 1.60996 30.8517 5.72436 23.7037C18.8363 0.924056 55.4264 -6.7893 75.3741 6.97125C81.9986 11.541 89.9406 26.3748 85.5049 35.8728C79.7846 48.1215 50.19 27.9896 37.3833 37.3939Z" fill="#21B600"/>
</g>
<g filter="url(#filter1_i_6_125)">
<path d="M13.3225 29.7883C11.3736 30.1954 9.72085 31.3867 8.25711 29.7883C6.39122 27.7507 8.4494 24.9231 9.52347 22.1826C12.1628 15.4483 17.5103 15.1632 23.4534 13.0558C29.1649 11.0306 32.8072 12.9189 38.6497 11.5347C43.7153 10.3345 46.2078 7.89539 51.3133 6.97128C56.6926 5.99763 61.5444 2.17979 65.2432 6.97128C67.0541 9.317 66.1341 12.0582 67.776 14.5769C69.3004 16.9155 73.4601 16.2646 72.8414 19.1403C72.3952 21.2141 69.8056 20.2469 69.0423 22.1826C68.4072 23.7932 67.9932 25.4859 69.0423 26.746C70.0914 28.0062 71.5692 25.8291 72.8414 26.746C74.5899 28.0062 74.7936 30.5239 74.1077 32.8305C72.9434 36.7466 68.6968 33.118 65.2432 32.8305C59.7273 32.3713 56.8292 30.2475 51.3133 29.7883C47.8598 29.5008 45.8784 29.2228 42.4488 29.7883C38.8819 30.3763 37.0461 31.6425 33.5843 32.8305C33.5843 32.8305 28.2584 36.6698 24.7198 35.8728C22.546 35.3832 20.7241 35.1557 19.6543 32.8305C18.4346 30.1794 20.9207 25.2249 20.9207 25.2249C20.9207 25.2249 16.591 29.1055 13.3225 29.7883Z" fill="#44CD0A"/>
</g>
<path d="M50.0469 22.1826C52.3426 20.9292 53.8638 20.8825 56.3787 20.6614C60.3552 20.3119 66.2186 17.406 66.5096 22.1826C66.6237 24.0561 66.311 25.3734 65.2432 26.746C63.8511 28.5356 62.1902 27.8724 60.1778 28.2671C56.2732 29.0328 53.6783 30.1533 50.0469 28.2671C48.4103 27.417 46.2479 27.3667 46.2479 25.2248C46.2479 23.083 48.4237 23.0689 50.0469 22.1826Z" fill="#B8E911"/>
<path d="M19.6543 26.746C11.5865 32.0548 0.658966 43.4785 0.658966 43.4785V46.5207C0.658966 46.5207 11.5865 33.5759 19.6543 28.2671C30.6269 21.0469 37.5363 16.2287 50.0469 16.098C60.2418 15.9916 74.1078 26.5824 75.3741 25.2249C75.8959 24.6655 76.1756 24.3314 76.6405 23.7037C77.767 22.1826 60.8479 14.5894 50.0469 14.5769C37.5359 14.5624 30.6269 19.5258 19.6543 26.746Z" fill="#006200"/>
<defs>
<filter id="filter0_i_6_125" x="0.496552" y="0.130402" width="89.2941" height="52.9315" filterUnits="userSpaceOnUse" color-interpolation-filters="sRGB">
<feFlood flood-opacity="0" result="BackgroundImageFix"/>
<feBlend mode="normal" in="SourceGraphic" in2="BackgroundImageFix" result="shape"/>
<feColorMatrix in="SourceAlpha" type="matrix" values="0 0 0 0 0 0 0 0 0 0 0 0 0 0 0 0 0 0 127 0" result="hardAlpha"/>
<feOffset dx="3" dy="1"/>
<feGaussianBlur stdDeviation="2"/>
<feComposite in2="hardAlpha" operator="arithmetic" k2="-1" k3="1"/>
<feColorMatrix type="matrix" values="0 0 0 0 0 0 0 0 0 0 0 0 0 0 0 0 0 0 0.25 0"/>
<feBlend mode="normal" in2="shape" result="effect1_innerShadow_6_125"/>
</filter>
<filter id="filter1_i_6_125" x="7.50412" y="4.6084" width="69.9689" height="32.3733" filterUnits="userSpaceOnUse" color-interpolation-filters="sRGB">
<feFlood flood-opacity="0" result="BackgroundImageFix"/>
<feBlend mode="normal" in="SourceGraphic" in2="BackgroundImageFix" result="shape"/>
<feColorMatrix in="SourceAlpha" type="matrix" values="0 0 0 0 0 0 0 0 0 0 0 0 0 0 0 0 0 0 127 0" result="hardAlpha"/>
<feOffset dx="3" dy="1"/>
<feGaussianBlur stdDeviation="2"/>
<feComposite in2="hardAlpha" operator="arithmetic" k2="-1" k3="1"/>
<feColorMatrix type="matrix" values="0 0 0 0 0.234722 0 0 0 0 0.704167 0 0 0 0 0.234722 0 0 0 1 0"/>
<feBlend mode="normal" in2="shape" result="effect1_innerShadow_6_125"/>
</filter>
</defs>
</svg>
