<svg width="77" height="85" viewBox="0 0 77 85" fill="none" xmlns="http://www.w3.org/2000/svg">
<g filter="url(#filter0_i_6_124)">
<path d="M11.9299 33.9712C11.491 37.4962 10.4838 39.9857 11.9299 43.098C13.135 45.6915 14.8457 46.1935 16.9954 47.6614C19.3106 49.2423 20.775 49.7893 23.3272 50.7036C31.3837 53.5899 36.585 52.5195 44.8552 50.7036C49.9343 49.5884 52.9604 49.0528 57.5188 46.1402C64.311 41.8005 68.2394 37.8063 71.4488 29.4078C73.15 24.9558 72.6716 21.8777 73.9815 17.2387C74.8369 14.2092 76.5142 9.63305 76.5142 9.63305C76.5142 9.63305 71.1277 7.70852 67.6497 6.59078C58.8406 3.75977 53.9217 -0.6677 44.8552 0.506251C35.6171 1.70243 30.2072 5.17399 23.3272 12.6753C17.2326 19.3202 13.1476 24.1932 11.9299 33.9712Z" fill="#21B600"/>
</g>
<path d="M31.3179 41.2828C31.9434 41.6585 31.9587 42.4283 32.5842 42.804C34.4609 43.9311 35.8744 40.6856 36.3833 38.2406C36.6232 37.088 36.8257 36.2609 36.3833 35.1983C35.4987 33.073 33.0872 34.1356 31.3179 35.1983C30.0668 35.9497 29.2275 36.6466 28.7852 38.2406C28.4724 39.3677 28.0858 40.4427 28.7852 41.2828C29.4846 42.1229 30.4332 40.7515 31.3179 41.2828Z" fill="#51B900"/>
<g filter="url(#filter1_i_6_124)">
<path d="M30.9253 49.1826C28.3925 49.1826 25.4523 45.9454 24.5935 44.6192C23.2357 42.5222 23.6044 39.3897 24.5935 37.0135C25.8599 33.9712 29.659 27.8867 29.659 27.8867C29.659 27.8867 18.8251 35.9692 16.9954 33.9712C12.8165 29.4078 15.5536 25.0552 16.9954 23.3233L23.3272 15.7177C25.8599 12.6754 26.3415 8.11205 29.659 8.11205C32.1917 8.11205 33.458 6.59085 33.458 6.59085L37.2571 5.06972C39.4466 4.69402 41.4433 4.19296 43.5889 3.54863C45.9878 2.82825 50.9087 5.79271 52.4534 8.11205C53.6892 9.96751 48.6544 13.3415 48.6544 15.7177C48.6544 17.2388 52.888 15.1957 54.9862 12.6754C57.5189 9.63315 60.0517 9.63315 65.117 9.63315L65.2835 9.63315C70.2723 9.63296 74.2982 9.63281 73.9815 11.1543C72.7152 17.2389 71.3151 19.0811 70.1824 21.8022C68.916 24.8444 64.1683 29.2762 62.5842 30.929C59.062 34.604 57.4773 36.7339 53.7197 40.0558C50.0476 43.3022 48.6544 44.6192 43.5889 46.1403C40.5546 47.0516 38.5234 49.1826 35.9907 49.1826H30.9253Z" fill="#44CD0A"/>
</g>
<path d="M47.388 18.7599L49.9207 15.7176C53.2126 13.0815 58.6624 11.2679 60.0516 15.7176C60.5725 17.3863 61.0171 18.9279 60.0516 20.281C58.7246 22.1407 56.8513 17.77 54.9862 18.7599C53.3552 19.6255 53.8839 22.0446 52.4534 23.3233C50.8176 24.7855 49.1365 26.1046 47.388 24.8444C46.7883 24.4122 46.1217 23.3233 46.1217 23.3233C45.4223 21.6431 47.388 18.7599 47.388 18.7599Z" fill="#B8E911"/>
<path d="M6.86451 64.3938C4.30125 71.8639 0.532715 84.1685 0.532715 84.1685H3.06543C3.06543 84.1685 5.57217 71.8662 8.13087 64.3938C13.0364 50.0676 16.1538 41.1284 25.8599 30.9289C35.6866 20.6026 56.2206 15.3256 56.2525 14.1964C56.2692 13.6027 56.2698 13.2689 56.2525 12.6753C56.2082 11.1542 35.9136 19.7792 25.8599 29.4077C14.7062 40.0896 12.3004 48.5519 6.86451 64.3938Z" fill="#006200"/>
<defs>
<filter id="filter0_i_6_124" x="11.1781" y="0.312469" width="68.3361" height="53.1768" filterUnits="userSpaceOnUse" color-interpolation-filters="sRGB">
<feFlood flood-opacity="0" result="BackgroundImageFix"/>
<feBlend mode="normal" in="SourceGraphic" in2="BackgroundImageFix" result="shape"/>
<feColorMatrix in="SourceAlpha" type="matrix" values="0 0 0 0 0 0 0 0 0 0 0 0 0 0 0 0 0 0 127 0" result="hardAlpha"/>
<feOffset dx="3" dy="1"/>
<feGaussianBlur stdDeviation="2"/>
<feComposite in2="hardAlpha" operator="arithmetic" k2="-1" k3="1"/>
<feColorMatrix type="matrix" values="0 0 0 0 0 0 0 0 0 0 0 0 0 0 0 0 0 0 0.25 0"/>
<feBlend mode="normal" in2="shape" result="effect1_innerShadow_6_124"/>
</filter>
<filter id="filter1_i_6_124" x="14.7745" y="3.43857" width="62.2245" height="46.744" filterUnits="userSpaceOnUse" color-interpolation-filters="sRGB">
<feFlood flood-opacity="0" result="BackgroundImageFix"/>
<feBlend mode="normal" in="SourceGraphic" in2="BackgroundImageFix" result="shape"/>
<feColorMatrix in="SourceAlpha" type="matrix" values="0 0 0 0 0 0 0 0 0 0 0 0 0 0 0 0 0 0 127 0" result="hardAlpha"/>
<feOffset dx="3" dy="1"/>
<feGaussianBlur stdDeviation="2"/>
<feComposite in2="hardAlpha" operator="arithmetic" k2="-1" k3="1"/>
<feColorMatrix type="matrix" values="0 0 0 0 0.141073 0 0 0 0 0.6875 0 0 0 0 0.0200521 0 0 0 1 0"/>
<feBlend mode="normal" in2="shape" result="effect1_innerShadow_6_124"/>
</filter>
</defs>
</svg>
