<svg width="95" height="27" viewBox="0 0 95 27" fill="none" xmlns="http://www.w3.org/2000/svg">
<g filter="url(#filter0_d_6_143)">
<rect x="6" y="2" width="83" height="15" rx="7.5" fill="url(#paint0_linear_6_143)"/>
<rect x="5" y="1" width="85" height="17" rx="8.5" stroke="#990000" stroke-width="2"/>
</g>
<g filter="url(#filter1_d_6_143)">
<path d="M38.2385 14V5.27273H39.2953V13.0625H43.3521V14H38.2385ZM44.8521 14V7.45455H45.8578V14H44.8521ZM45.3635 6.36364C45.1674 6.36364 44.9984 6.29688 44.8564 6.16335C44.7172 6.02983 44.6475 5.86932 44.6475 5.68182C44.6475 5.49432 44.7172 5.33381 44.8564 5.20028C44.9984 5.06676 45.1674 5 45.3635 5C45.5595 5 45.7271 5.06676 45.8663 5.20028C46.0083 5.33381 46.0794 5.49432 46.0794 5.68182C46.0794 5.86932 46.0083 6.02983 45.8663 6.16335C45.7271 6.29688 45.5595 6.36364 45.3635 6.36364ZM50.6145 7.45455V8.30682H47.0861V7.45455H50.6145ZM48.1429 14V6.55114C48.1429 6.17614 48.231 5.86364 48.4071 5.61364C48.5833 5.36364 48.812 5.17614 49.0932 5.05114C49.3745 4.92614 49.6713 4.86364 49.9838 4.86364C50.231 4.86364 50.4327 4.88352 50.589 4.9233C50.7452 4.96307 50.8617 5 50.9384 5.03409L50.6486 5.90341C50.5975 5.88636 50.5265 5.86506 50.4355 5.83949C50.3475 5.81392 50.231 5.80114 50.0861 5.80114C49.7537 5.80114 49.5137 5.88494 49.3659 6.05256C49.2211 6.22017 49.1486 6.46591 49.1486 6.78977V14H48.1429ZM54.4988 14.1364C53.8681 14.1364 53.324 13.9972 52.8667 13.7188C52.4121 13.4375 52.0613 13.0455 51.8141 12.5426C51.5698 12.0369 51.4476 11.4489 51.4476 10.7784C51.4476 10.108 51.5698 9.51705 51.8141 9.00568C52.0613 8.49148 52.405 8.09091 52.8453 7.80398C53.2885 7.5142 53.8056 7.36932 54.3965 7.36932C54.7374 7.36932 55.074 7.42614 55.4064 7.53977C55.7388 7.65341 56.0414 7.83807 56.3141 8.09375C56.5868 8.34659 56.8042 8.68182 56.9661 9.09943C57.128 9.51705 57.209 10.0312 57.209 10.642V11.0682H52.1635V10.1989H56.1863C56.1863 9.82955 56.1124 9.5 55.9647 9.21023C55.8198 8.92045 55.6124 8.69176 55.3425 8.52415C55.0755 8.35653 54.7601 8.27273 54.3965 8.27273C53.9959 8.27273 53.6493 8.37216 53.3567 8.57102C53.0669 8.76705 52.8439 9.02273 52.6877 9.33807C52.5314 9.65341 52.4533 9.99148 52.4533 10.3523V10.9318C52.4533 11.4261 52.5385 11.8452 52.709 12.1889C52.8823 12.5298 53.1223 12.7898 53.4292 12.9688C53.736 13.1449 54.0925 13.233 54.4988 13.233C54.763 13.233 55.0016 13.196 55.2147 13.1222C55.4306 13.0455 55.6167 12.9318 55.7729 12.7812C55.9292 12.6278 56.0499 12.4375 56.1351 12.2102L57.1067 12.483C57.0044 12.8125 56.8326 13.1023 56.5911 13.3523C56.3496 13.5994 56.0513 13.7926 55.6962 13.9318C55.3411 14.0682 54.9419 14.1364 54.4988 14.1364Z" fill="white"/>
</g>
<defs>
<filter id="filter0_d_6_143" x="0" y="0" width="95" height="27" filterUnits="userSpaceOnUse" color-interpolation-filters="sRGB">
<feFlood flood-opacity="0" result="BackgroundImageFix"/>
<feColorMatrix in="SourceAlpha" type="matrix" values="0 0 0 0 0 0 0 0 0 0 0 0 0 0 0 0 0 0 127 0" result="hardAlpha"/>
<feOffset dy="4"/>
<feGaussianBlur stdDeviation="2"/>
<feComposite in2="hardAlpha" operator="out"/>
<feColorMatrix type="matrix" values="0 0 0 0 0 0 0 0 0 0 0 0 0 0 0 0 0 0 0.25 0"/>
<feBlend mode="normal" in2="BackgroundImageFix" result="effect1_dropShadow_6_143"/>
<feBlend mode="normal" in="SourceGraphic" in2="effect1_dropShadow_6_143" result="shape"/>
</filter>
<filter id="filter1_d_6_143" x="38.2385" y="4.86365" width="20.9705" height="11.2727" filterUnits="userSpaceOnUse" color-interpolation-filters="sRGB">
<feFlood flood-opacity="0" result="BackgroundImageFix"/>
<feColorMatrix in="SourceAlpha" type="matrix" values="0 0 0 0 0 0 0 0 0 0 0 0 0 0 0 0 0 0 127 0" result="hardAlpha"/>
<feOffset dx="1" dy="1"/>
<feGaussianBlur stdDeviation="0.5"/>
<feComposite in2="hardAlpha" operator="out"/>
<feColorMatrix type="matrix" values="0 0 0 0 0 0 0 0 0 0 0 0 0 0 0 0 0 0 0.25 0"/>
<feBlend mode="normal" in2="BackgroundImageFix" result="effect1_dropShadow_6_143"/>
<feBlend mode="normal" in="SourceGraphic" in2="effect1_dropShadow_6_143" result="shape"/>
</filter>
<linearGradient id="paint0_linear_6_143" x1="47.5" y1="2" x2="47.5" y2="17" gradientUnits="userSpaceOnUse">
<stop stop-color="#FF8888"/>
<stop offset="1" stop-color="#CB2C2C"/>
</linearGradient>
</defs>
</svg>
