<svg width="430" height="180" viewBox="0 0 430 180" fill="none" xmlns="http://www.w3.org/2000/svg">
<g filter="url(#filter0_i_6_118)">
<path d="M31.5975 48.1581L0 87.5V180L214.237 166.663L430 162.062V116.5C430 116.5 406.999 114.414 398.847 106.848C391.062 99.6228 388.181 92.9931 381.54 83.8424C374.99 74.8175 371.212 69.8789 365.067 60.3255C356.262 46.6371 352.961 39.0325 343.056 29.9069C338.407 25.6238 333.222 23.2919 327.648 23.8232C322.854 24.2801 319.736 26.6662 315.542 29.9069C306.383 36.9832 301.966 41.0559 293.531 49.679C282.953 60.491 274.648 68.2589 263.815 78.5767C253.498 88.4038 250.095 92.9682 240.704 104.433C237.515 108.325 233 116.6 229.698 116.6C226.396 116.6 218.005 105.802 209.888 96.8279C204.385 90.7441 198.882 83.1395 191.179 83.1395C185.575 83.1395 180.173 90.7442 177.972 95.3069C175.771 99.8697 173.185 105.936 170.268 102.912C165.476 97.9444 163.831 95.3069 162.564 93.786C138.965 65.4583 114.941 37.5816 89.9271 11.6557C85.5249 7.0929 80.2819 0.724785 74.5193 1.0092C69.1374 1.27483 65.7148 5.57199 62.4131 10.1348C51.0054 25.9 31.5975 48.1581 31.5975 48.1581Z" fill="#C0A3ED"/>
</g>
<g filter="url(#filter1_i_6_118)">
<path d="M35.7857 47.4896C32.7 52.4476 33.3548 58.7411 28.3709 58.7904C25.846 58.8154 16 67.5 16 67.5C16 67.5 32.7515 42.3118 40.3769 33.4927C45.5707 27.4859 47.9995 21.6241 53.5836 16.2082C57.8281 12.0914 59.7165 8.8526 64.389 5.56262C67.51 3.36509 70.4293 0.528804 74 0.499996C76.9653 0.476071 78.7921 1.46903 81.5 2.99996C86.1312 5.61825 87.3253 9.35229 91.5 13C103.619 23.5892 109.266 30.4995 120.817 42.0617C134.665 55.9225 130 51.5 139.5 66.5C144.013 71.7513 147.598 75.9787 150.464 79.41C166.37 98.117 164.1 95.3359 170 102.5C171.668 104.525 172.5 103.5 174.5 100.5C176.31 97.7843 178.028 94.2961 180.5 91C183.5 87 186.236 82.2756 192.5 83C197.307 83.5559 200.492 86.5198 204 90C207.838 93.8068 215.74 104.139 220.083 107.456C223.672 110.196 225.248 111.87 229.555 112.975C235.5 114.5 240.878 103 240.878 104.5C240.878 107.733 247.939 114.7 249.282 118.101C250.483 121.143 250.482 125.705 246.881 121.143C244.48 118.101 245.077 116.772 240.878 118.101C236.075 119.622 237.31 124.131 234.875 125.705C232.787 127.055 231.209 123.415 229.16 121.973C226.176 119.873 227.437 115.238 224.03 114.975C221.69 114.794 221.284 118.101 220.083 119.622C218.888 121.137 219.72 113.89 218.899 112.018C217.738 109.371 216.137 115.06 216.137 112.018C216.137 110.14 216.026 107.19 214.558 107.456C213.52 107.644 213.185 110.896 212.19 110.476C211.196 110.056 210.05 107.231 209.822 105.935C209.619 104.776 208.033 103.142 207.849 101.977C207.186 97.7779 206.321 104.353 203.508 101.977C202.102 100.79 198.061 95.9067 196.405 95.4789C194.51 94.9897 191.5 90.6008 189.696 91.4798C187.144 92.723 186.558 94.4394 184.565 96.8103C181.81 100.088 183.378 102.199 181.014 105.935C179.355 108.556 185.759 112.454 183.249 113.539C180.55 114.705 181.156 108.582 178.446 107.456C174.855 105.962 172.902 109.477 170.358 105.935C167.579 102.065 168.163 103.407 165.623 99.9779C160.98 93.7101 165.061 96.8881 150.464 79.41C147.498 75.9217 143.901 71.6863 139.5 66.5C132.5 60 128.405 67.9173 123.001 58.7904C119.4 52.7073 119.257 47.6997 113.614 45.1033C111.797 44.2673 109.422 44.2468 107.611 45.1033C105.245 46.2219 108.184 50.4314 106.41 52.7073C104.937 54.5973 102.214 54.4004 100.407 55.7489C98.9507 56.836 97.7237 56.9926 96.8053 58.7904C94.7517 62.8105 98.6475 66.4583 101.608 69.436C103.25 71.0877 105.596 70.0297 106.41 72.4776C107.16 74.7344 106.867 77.3009 105.21 78.5608C103.552 79.8206 102.139 78.1271 100.407 77.04C97.1258 74.9807 95.4544 71.5738 93.2035 67.9149C89.6856 62.1966 89.918 57.9915 85.9999 52.7073C83.0405 48.7161 80.9333 47.0621 77.5956 43.5825C75.2776 41.1658 73.9938 35.9782 72.2152 35.9782C70.8086 35.9782 70.1489 40.613 70.392 43.5825C70.6352 46.552 70.392 48.1446 72.2152 49.6657C74.0384 51.1867 74.771 52.502 73.9938 54.2281C73.5786 55.1501 73.0338 55.5215 72.2152 55.7489C70.9741 56.0935 70.1805 55.2383 69.1914 54.2281C66.9712 51.9605 68.5089 48.6558 67.9908 45.1033C67.5565 42.1253 67.9908 37.4993 66.7902 37.4993C65.5896 37.4993 64.5104 42.072 63.1884 45.1033C61.6675 48.5906 60.7156 50.5096 59.5866 54.2281C59.0543 55.981 58.2076 56.926 58.386 58.7904C58.7149 62.2283 62.0036 61.6608 64.389 63.3528C65.7822 64.341 67.0706 64.1509 67.9908 65.8039C69.1765 67.9339 68.8464 70.1074 67.9908 72.4776C66.383 76.9315 62.2318 75.0152 58.386 75.5192C55.5877 75.8858 53.4329 77.6572 51.1823 75.5192C49.5049 73.9256 49.2897 72.0127 48.7811 69.436C47.7327 64.1239 51.6512 61.094 51.1823 55.7489C50.7135 50.4037 49.9817 45.1036 49.9817 42.0617C49.9817 39.0198 47.5805 42.0617 47.5805 43.5825C47.5805 46.6241 45.6385 49.5632 43.9787 51.1862C42.4484 52.6825 40.7727 55.6091 39.1763 54.2281C37.0912 52.4243 43.9159 48.3006 43.9787 45.1033C44.0268 42.6553 40.958 43.0119 39.1763 42.0617C37.0157 40.9093 37.237 45.1576 35.7857 47.4896Z" fill="url(#paint0_linear_6_118)"/>
</g>
<g filter="url(#filter2_i_6_118)">
<path d="M389.934 100.963C389.934 100.963 390.403 96.4074 388.834 93.3704C377.5 71.4252 347.021 22 330.516 22C314.011 22 289.803 50.8519 284.301 58.4444C282.174 61.3797 291.924 54.2199 294.205 56.9259C296.509 59.6595 295.586 71.648 298.606 72.1111C300.741 72.4386 301.378 69.4885 303.007 67.5556C304.85 65.3687 304.998 61.9097 307.408 61.4815C310.737 60.8902 309.681 69.3304 312.91 70.5926C315.92 71.7691 317.852 69.585 320.613 67.5556C323.041 65.7705 323.45 60.5327 326.114 61.4815C328.195 62.2224 328.21 65.1015 329.415 67.5556C330.822 70.4174 330.316 74.1557 332.716 75.1482C334.933 76.0647 336.002 71.1926 338.218 72.1111C341.214 73.3528 337.334 83.4611 340.419 82.7407C342.216 82.3209 342.782 80.3426 343.72 78.1852C345.71 73.6086 343.339 69.8298 343.72 64.5185C343.977 60.9288 342.786 57.6728 344.82 55.4074C347.811 52.0763 346.568 63.7188 349.222 67.5556C350.705 69.7004 351.731 70.706 353.623 72.1111C356.743 74.4284 361.566 79.8923 362.426 75.1482C363.163 71.0801 358.887 70.7566 356.924 67.5556C355.536 65.292 351.904 63.2605 353.623 61.4815C355.16 59.8902 356.335 63.2541 358.024 64.5185C360.227 66.1671 361.502 67.0368 363.526 69.0741C368.197 73.7746 369.624 78.2531 373.429 84.2593C376.037 88.3752 377.335 90.8833 380.031 94.8889C382.513 98.5755 386.633 104 386.633 104L389.934 100.963Z" fill="url(#paint1_linear_6_118)"/>
</g>
<defs>
<filter id="filter0_i_6_118" x="0" y="1" width="433" height="180" filterUnits="userSpaceOnUse" color-interpolation-filters="sRGB">
<feFlood flood-opacity="0" result="BackgroundImageFix"/>
<feBlend mode="normal" in="SourceGraphic" in2="BackgroundImageFix" result="shape"/>
<feColorMatrix in="SourceAlpha" type="matrix" values="0 0 0 0 0 0 0 0 0 0 0 0 0 0 0 0 0 0 127 0" result="hardAlpha"/>
<feOffset dx="3" dy="1"/>
<feGaussianBlur stdDeviation="2"/>
<feComposite in2="hardAlpha" operator="arithmetic" k2="-1" k3="1"/>
<feColorMatrix type="matrix" values="0 0 0 0 0.67898 0 0 0 0 0.52849 0 0 0 0 0.9125 0 0 0 1 0"/>
<feBlend mode="normal" in2="shape" result="effect1_innerShadow_6_118"/>
</filter>
<filter id="filter1_i_6_118" x="16" y="0.499573" width="237" height="126.5" filterUnits="userSpaceOnUse" color-interpolation-filters="sRGB">
<feFlood flood-opacity="0" result="BackgroundImageFix"/>
<feBlend mode="normal" in="SourceGraphic" in2="BackgroundImageFix" result="shape"/>
<feColorMatrix in="SourceAlpha" type="matrix" values="0 0 0 0 0 0 0 0 0 0 0 0 0 0 0 0 0 0 127 0" result="hardAlpha"/>
<feOffset dx="3" dy="1"/>
<feGaussianBlur stdDeviation="2"/>
<feComposite in2="hardAlpha" operator="arithmetic" k2="-1" k3="1"/>
<feColorMatrix type="matrix" values="0 0 0 0 0.7 0 0 0 0 0.7 0 0 0 0 0.7 0 0 0 0.25 0"/>
<feBlend mode="normal" in2="shape" result="effect1_innerShadow_6_118"/>
</filter>
<filter id="filter2_i_6_118" x="284" y="22" width="109" height="83" filterUnits="userSpaceOnUse" color-interpolation-filters="sRGB">
<feFlood flood-opacity="0" result="BackgroundImageFix"/>
<feBlend mode="normal" in="SourceGraphic" in2="BackgroundImageFix" result="shape"/>
<feColorMatrix in="SourceAlpha" type="matrix" values="0 0 0 0 0 0 0 0 0 0 0 0 0 0 0 0 0 0 127 0" result="hardAlpha"/>
<feOffset dx="3" dy="1"/>
<feGaussianBlur stdDeviation="2"/>
<feComposite in2="hardAlpha" operator="arithmetic" k2="-1" k3="1"/>
<feColorMatrix type="matrix" values="0 0 0 0 0.491667 0 0 0 0 0.489618 0 0 0 0 0.489618 0 0 0 0.25 0"/>
<feBlend mode="normal" in2="shape" result="effect1_innerShadow_6_118"/>
</filter>
<linearGradient id="paint0_linear_6_118" x1="72.7932" y1="0.999994" x2="72.7932" y2="75.5189" gradientUnits="userSpaceOnUse">
<stop stop-color="white"/>
<stop offset="0.625" stop-color="#FBFAFC"/>
<stop offset="1" stop-color="#F0EAF7"/>
</linearGradient>
<linearGradient id="paint1_linear_6_118" x1="337" y1="22" x2="335.13" y2="93.3471" gradientUnits="userSpaceOnUse">
<stop stop-color="white"/>
<stop offset="1" stop-color="#CBC1D8"/>
</linearGradient>
</defs>
</svg>
