<svg width="47" height="71" viewBox="0 0 47 71" fill="none" xmlns="http://www.w3.org/2000/svg">
<g filter="url(#filter0_i_4_104)">
<path d="M38.5752 9.16867C34.144 3.40985 29.8469 3.37801 23.8259 1.563C14.7479 -1.17352 0 1.563 0 1.563V68.4929C0 68.4929 25.6948 73.0703 32.9024 68.4929C38.5652 64.8965 41.4458 60.7956 44.248 53.2815C48.211 42.655 47.1728 34.0739 44.248 22.8589C42.7424 17.0856 41.8507 13.4255 38.5752 9.16867Z" fill="#C6C1A7"/>
</g>
<g filter="url(#filter1_i_4_104)">
<path d="M9.0765 59.366C7.66648 57.4995 8.57967 54.4696 6.80737 53.2815C4.00512 51.403 3.793 60.569 5.67281 63.9294C6.8617 66.0547 8.26861 66.447 10.2111 66.9717C12.8531 67.6854 14.3386 65.8343 17.0185 65.4506C21.8647 64.7567 25.4067 69.0004 29.4987 65.4506C31.0769 64.0814 32.2701 63.2606 32.9024 60.8872C33.6622 58.0346 30.9154 56.0867 31.7678 53.2815C33.1156 48.8462 41.6761 56.418 40.8443 51.7604C40.4066 49.3094 38.5021 49.277 37.4406 47.197C35.6192 43.6278 37.2108 39.8998 35.1715 36.549C30.4095 28.7246 32.6264 54.336 26.095 59.366C22.1769 62.3835 19.1923 63.5114 14.7493 62.4083C12.4032 61.8258 10.7744 61.6136 9.0765 59.366Z" fill="#8C8873"/>
</g>
<g filter="url(#filter2_i_4_104)">
<path d="M17.3209 6.7248C14.8145 3.36441 11.372 4.48842 8.24442 6.7248C2.38019 10.918 4.31982 22.3507 8.24442 29.5418C10.7127 34.0645 13.2173 36.0812 17.3209 37.1475C19.4958 37.7126 20.9649 38.3405 22.9938 37.1475C27.1318 34.7142 28.899 18.3398 25.2629 21.9361C23.1838 23.9924 24.1735 28.0021 21.8592 29.5418C18.9697 31.4641 15.8382 29.9737 13.9172 26.4995C12.5718 24.0662 11.111 20.9314 12.7827 18.8939C14.0941 17.2955 15.7357 19.9565 17.3209 18.8939C20.4913 16.7686 19.8274 10.0852 17.3209 6.7248Z" fill="#DDD5AE"/>
</g>
<defs>
<filter id="filter0_i_4_104" x="0" y="0.346771" width="47.8455" height="74.1805" filterUnits="userSpaceOnUse" color-interpolation-filters="sRGB">
<feFlood flood-opacity="0" result="BackgroundImageFix"/>
<feBlend mode="normal" in="SourceGraphic" in2="BackgroundImageFix" result="shape"/>
<feColorMatrix in="SourceAlpha" type="matrix" values="0 0 0 0 0 0 0 0 0 0 0 0 0 0 0 0 0 0 127 0" result="hardAlpha"/>
<feOffset dx="1" dy="5"/>
<feGaussianBlur stdDeviation="2"/>
<feComposite in2="hardAlpha" operator="arithmetic" k2="-1" k3="1"/>
<feColorMatrix type="matrix" values="0 0 0 0 0 0 0 0 0 0 0 0 0 0 0 0 0 0 0.25 0"/>
<feBlend mode="normal" in2="shape" result="effect1_innerShadow_4_104"/>
</filter>
<filter id="filter1_i_4_104" x="4.44781" y="35.074" width="36.4533" height="33.0599" filterUnits="userSpaceOnUse" color-interpolation-filters="sRGB">
<feFlood flood-opacity="0" result="BackgroundImageFix"/>
<feBlend mode="normal" in="SourceGraphic" in2="BackgroundImageFix" result="shape"/>
<feColorMatrix in="SourceAlpha" type="matrix" values="0 0 0 0 0 0 0 0 0 0 0 0 0 0 0 0 0 0 127 0" result="hardAlpha"/>
<feOffset dy="1"/>
<feGaussianBlur stdDeviation="0.5"/>
<feComposite in2="hardAlpha" operator="arithmetic" k2="-1" k3="1"/>
<feColorMatrix type="matrix" values="0 0 0 0 0 0 0 0 0 0 0 0 0 0 0 0 0 0 0.25 0"/>
<feBlend mode="normal" in2="shape" result="effect1_innerShadow_4_104"/>
</filter>
<filter id="filter2_i_4_104" x="4.53825" y="4.60526" width="22.6957" height="34.2213" filterUnits="userSpaceOnUse" color-interpolation-filters="sRGB">
<feFlood flood-opacity="0" result="BackgroundImageFix"/>
<feBlend mode="normal" in="SourceGraphic" in2="BackgroundImageFix" result="shape"/>
<feColorMatrix in="SourceAlpha" type="matrix" values="0 0 0 0 0 0 0 0 0 0 0 0 0 0 0 0 0 0 127 0" result="hardAlpha"/>
<feOffset dy="1"/>
<feGaussianBlur stdDeviation="0.5"/>
<feComposite in2="hardAlpha" operator="arithmetic" k2="-1" k3="1"/>
<feColorMatrix type="matrix" values="0 0 0 0 0 0 0 0 0 0 0 0 0 0 0 0 0 0 0.25 0"/>
<feBlend mode="normal" in2="shape" result="effect1_innerShadow_4_104"/>
</filter>
</defs>
</svg>
