<svg width="75" height="68" viewBox="0 0 75 68" fill="none" xmlns="http://www.w3.org/2000/svg">
<g filter="url(#filter0_i_4_109)">
<path d="M5.48556 12.7743C11.478 -0.589369 22.2672 2.01614 33.8497 0.605282C44.9603 -0.748097 59.0442 0.770133 62.2138 5.16868C65.3834 9.56721 65.7469 13.4574 67.8866 18.8589C70.675 25.8976 74.5323 29.1455 74.694 37.1125C74.8507 44.8321 72.7947 49.5315 69.0212 55.3661C63.4152 64.034 56.9774 63.681 48.599 66.014C35.1227 69.7665 27.19 63.2387 13.4275 62.9717C9.44025 62.8944 9.19905 61.8776 5.48556 59.9294C2.26297 58.2388 2.33431 56.5744 0.947261 52.3238C-1.4354 45.0221 1.4047 44.7032 3.21643 37.1125C5.39386 27.9896 1.80445 20.9836 5.48556 12.7743Z" fill="#C6C1A7"/>
</g>
<g filter="url(#filter1_i_4_109)">
<path d="M40.657 64.4929C38.836 64.2976 37.2259 64.92 36.1188 62.9717C35.0447 61.0817 34.8656 58.5674 36.1188 56.8872C37.372 55.207 38.8984 57.1819 40.657 56.8872C43.4376 56.4212 44.875 55.281 47.4644 53.845C51.6798 51.5072 53.1902 45.1242 57.6755 46.2393C59.6238 46.7236 60.2323 49.2816 62.2138 49.2816C64.1953 49.2816 65.4549 48.2476 66.752 46.2393C68.5163 43.5077 67.7102 40.7181 67.8866 37.1125C68.0026 34.7414 66.4688 32.4536 67.8866 31.028C68.95 29.9587 70.089 30.2651 71.2903 31.028C72.734 31.9448 73.1391 33.525 73.5594 35.5914C74.1539 38.5136 73.1189 40.3145 72.4249 43.197C71.5117 46.9892 70.7487 49.0811 69.0212 52.3238C67.2001 55.7419 66.0413 57.7827 63.3483 59.9295C60.2079 62.433 57.9061 62.4677 54.2718 62.9717C51.6275 63.3385 50.1139 62.6798 47.4644 62.9717C44.7784 63.2677 43.3436 64.781 40.657 64.4929Z" fill="#9F9F9A"/>
</g>
<g filter="url(#filter2_i_4_109)">
<path d="M46.175 36.6876C50.1428 34.9248 52.6832 24.6605 55.2515 29.0819C56.1124 30.564 56.5842 31.7857 56.3861 33.6453C56.1202 36.1403 54.3116 36.4266 52.9824 38.2087C52.0962 39.3968 51.8087 40.435 50.7132 41.251C48.7767 42.6935 46.1802 38.7041 45.0404 41.251C43.9006 43.7979 45.6349 44.2204 45.0404 45.8144C43.8515 49.0024 39.9349 48.5525 38.233 45.8144C36.8148 43.5326 37.0437 40.7146 38.233 38.2087C39.9151 34.6649 43.201 38.0089 46.175 36.6876Z" fill="#B9B59A"/>
</g>
<g filter="url(#filter3_i_4_109)">
<path d="M16.8312 18.8589L14.562 23.4223C13.6759 25.2044 15.3073 29.3478 13.4275 31.028C11.9528 32.346 10.5605 30.2371 8.88921 31.028C4.92547 32.9036 1.33358 45.5971 5.48552 44.7182C7.67378 44.2549 8.03443 41.4618 10.0238 40.1548C13.6266 37.7876 16.2249 38.8159 20.2349 38.6336C22.0061 38.5531 23.0851 39.3578 24.7731 38.6336C26.2946 37.9809 26.6356 36.1549 28.1768 35.5914C29.4592 35.1225 31.1602 37.282 31.5805 35.5914C31.8938 34.3312 31.0907 33.5576 30.4459 32.5491C28.4275 29.3919 24.6317 35.5746 22.504 32.5491C20.9541 30.3452 22.4041 27.6362 21.3694 24.9434C20.2216 21.9561 17.7173 17.0768 16.8312 18.8589Z" fill="#B3AF9D"/>
</g>
<g filter="url(#filter4_i_4_109)">
<path d="M28.1768 17.3377C25.9971 17.869 24.4598 14.1935 24.7731 11.2532C25.0389 8.75819 26.3335 6.19548 28.1768 6.68975C29.7433 7.1098 30.2478 9.12785 30.4459 11.2532C30.6917 13.8893 30.1263 16.8625 28.1768 17.3377Z" fill="#D3D0BB"/>
</g>
<g filter="url(#filter5_i_4_109)">
<path d="M42.9262 8.21092C42.4347 7.05762 41.3577 7.62904 40.6571 6.68979C38.6756 4.03316 44.7311 2.81999 47.4645 3.64752C49.6255 4.30174 51.1235 5.4847 52.0028 8.21092C52.7062 10.3919 52.0028 11.9193 52.0028 14.2955C52.0028 16.0776 52.4695 17.1902 52.0028 18.8589C50.7582 23.3086 46.2386 20.5507 42.9262 18.8589C42.0004 18.386 40.6571 17.3377 40.6571 17.3377C39.8596 15.912 39.8596 14.2 40.6571 12.7743C41.2516 11.7117 42.4347 12.4065 42.9262 11.2532C43.3659 10.2216 43.3659 9.24246 42.9262 8.21092Z" fill="#BAB59C"/>
</g>
<defs>
<filter id="filter0_i_4_109" x="0.036438" y="0.127014" width="79.666" height="69.0471" filterUnits="userSpaceOnUse" color-interpolation-filters="sRGB">
<feFlood flood-opacity="0" result="BackgroundImageFix"/>
<feBlend mode="normal" in="SourceGraphic" in2="BackgroundImageFix" result="shape"/>
<feColorMatrix in="SourceAlpha" type="matrix" values="0 0 0 0 0 0 0 0 0 0 0 0 0 0 0 0 0 0 127 0" result="hardAlpha"/>
<feOffset dx="5" dy="2"/>
<feGaussianBlur stdDeviation="2.5"/>
<feComposite in2="hardAlpha" operator="arithmetic" k2="-1" k3="1"/>
<feColorMatrix type="matrix" values="0 0 0 0 0 0 0 0 0 0 0 0 0 0 0 0 0 0 0.25 0"/>
<feBlend mode="normal" in2="shape" result="effect1_innerShadow_4_109"/>
</filter>
<filter id="filter1_i_4_109" x="35.2448" y="30.3362" width="38.4918" height="35.193" filterUnits="userSpaceOnUse" color-interpolation-filters="sRGB">
<feFlood flood-opacity="0" result="BackgroundImageFix"/>
<feBlend mode="normal" in="SourceGraphic" in2="BackgroundImageFix" result="shape"/>
<feColorMatrix in="SourceAlpha" type="matrix" values="0 0 0 0 0 0 0 0 0 0 0 0 0 0 0 0 0 0 127 0" result="hardAlpha"/>
<feOffset dy="1"/>
<feGaussianBlur stdDeviation="1"/>
<feComposite in2="hardAlpha" operator="arithmetic" k2="-1" k3="1"/>
<feColorMatrix type="matrix" values="0 0 0 0 0 0 0 0 0 0 0 0 0 0 0 0 0 0 0.25 0"/>
<feBlend mode="normal" in2="shape" result="effect1_innerShadow_4_109"/>
</filter>
<filter id="filter2_i_4_109" x="37.2533" y="27.9857" width="19.1777" height="21.0542" filterUnits="userSpaceOnUse" color-interpolation-filters="sRGB">
<feFlood flood-opacity="0" result="BackgroundImageFix"/>
<feBlend mode="normal" in="SourceGraphic" in2="BackgroundImageFix" result="shape"/>
<feColorMatrix in="SourceAlpha" type="matrix" values="0 0 0 0 0 0 0 0 0 0 0 0 0 0 0 0 0 0 127 0" result="hardAlpha"/>
<feOffset dy="1"/>
<feGaussianBlur stdDeviation="1"/>
<feComposite in2="hardAlpha" operator="arithmetic" k2="-1" k3="1"/>
<feColorMatrix type="matrix" values="0 0 0 0 0 0 0 0 0 0 0 0 0 0 0 0 0 0 0.25 0"/>
<feBlend mode="normal" in2="shape" result="effect1_innerShadow_4_109"/>
</filter>
<filter id="filter3_i_4_109" x="3.63666" y="18.4777" width="28.0138" height="27.2841" filterUnits="userSpaceOnUse" color-interpolation-filters="sRGB">
<feFlood flood-opacity="0" result="BackgroundImageFix"/>
<feBlend mode="normal" in="SourceGraphic" in2="BackgroundImageFix" result="shape"/>
<feColorMatrix in="SourceAlpha" type="matrix" values="0 0 0 0 0 0 0 0 0 0 0 0 0 0 0 0 0 0 127 0" result="hardAlpha"/>
<feOffset dy="1"/>
<feGaussianBlur stdDeviation="0.5"/>
<feComposite in2="hardAlpha" operator="arithmetic" k2="-1" k3="1"/>
<feColorMatrix type="matrix" values="0 0 0 0 0 0 0 0 0 0 0 0 0 0 0 0 0 0 0.25 0"/>
<feBlend mode="normal" in2="shape" result="effect1_innerShadow_4_109"/>
</filter>
<filter id="filter4_i_4_109" x="24.7325" y="6.62805" width="5.7674" height="11.7613" filterUnits="userSpaceOnUse" color-interpolation-filters="sRGB">
<feFlood flood-opacity="0" result="BackgroundImageFix"/>
<feBlend mode="normal" in="SourceGraphic" in2="BackgroundImageFix" result="shape"/>
<feColorMatrix in="SourceAlpha" type="matrix" values="0 0 0 0 0 0 0 0 0 0 0 0 0 0 0 0 0 0 127 0" result="hardAlpha"/>
<feOffset dy="1"/>
<feGaussianBlur stdDeviation="0.5"/>
<feComposite in2="hardAlpha" operator="arithmetic" k2="-1" k3="1"/>
<feColorMatrix type="matrix" values="0 0 0 0 0 0 0 0 0 0 0 0 0 0 0 0 0 0 0.25 0"/>
<feBlend mode="normal" in2="shape" result="effect1_innerShadow_4_109"/>
</filter>
<filter id="filter5_i_4_109" x="40.059" y="3.39062" width="12.2565" height="18.8777" filterUnits="userSpaceOnUse" color-interpolation-filters="sRGB">
<feFlood flood-opacity="0" result="BackgroundImageFix"/>
<feBlend mode="normal" in="SourceGraphic" in2="BackgroundImageFix" result="shape"/>
<feColorMatrix in="SourceAlpha" type="matrix" values="0 0 0 0 0 0 0 0 0 0 0 0 0 0 0 0 0 0 127 0" result="hardAlpha"/>
<feOffset dy="1"/>
<feGaussianBlur stdDeviation="0.5"/>
<feComposite in2="hardAlpha" operator="arithmetic" k2="-1" k3="1"/>
<feColorMatrix type="matrix" values="0 0 0 0 0 0 0 0 0 0 0 0 0 0 0 0 0 0 0.25 0"/>
<feBlend mode="normal" in2="shape" result="effect1_innerShadow_4_109"/>
</filter>
</defs>
</svg>
