<svg width="47" height="71" viewBox="0 0 47 71" fill="none" xmlns="http://www.w3.org/2000/svg">
<g filter="url(#filter0_i_4_105)">
<path d="M11.9208 67.3236C9.50864 66.0831 8.24099 64.9643 6.24799 62.7602C-2.1312 53.4934 0.575167 42.3294 0.575167 26.2532C0.575167 20.607 2.59627 14.7695 6.24799 9.52056C11.1304 2.50256 16.1101 0.602345 23.2665 0.393764C30.8359 0.173143 36.9282 1.34847 41.4195 9.52056C43.6652 13.6067 43.9439 16.7531 44.8232 21.6898C47.3123 35.6647 46.3979 45.4734 41.4195 58.1968C39.9352 61.9902 39.3592 64.6194 36.8812 67.3236C32.0582 72.5871 27.2074 69.2868 20.9973 68.8447C17.4302 68.5908 15.256 69.0388 11.9208 67.3236Z" fill="#9C9885"/>
</g>
<g filter="url(#filter1_i_4_105)">
<path d="M5.11344 30.8166C4.04669 28.8282 4.48939 25.3952 6.24801 24.7321C7.78587 24.1522 9.20939 25.7162 9.6517 27.7743C10.0396 29.5794 9.77034 31.4976 8.51714 32.3377C7.26393 33.1778 5.9316 32.3416 5.11344 30.8166Z" fill="#DDD5AE"/>
</g>
<g filter="url(#filter2_i_4_105)">
<path d="M38.0158 18.6475C38.6219 13.3967 36.6381 9.6839 33.4775 6.47841C30.9051 3.86933 28.7555 3.69387 25.5356 3.43614C21.4579 3.10975 18.3471 2.79433 15.3245 6.47841C13.1252 9.15897 11.825 11.6223 11.9208 15.6052C12.1151 23.6808 22.0392 4.35024 26.6702 9.52068C30.1424 13.3973 25.1272 21.4796 28.9393 24.732C30.8453 26.3582 32.5052 27.3466 34.6121 26.2531C37.0215 25.0027 37.6207 22.0705 38.0158 18.6475Z" fill="#D6C675"/>
</g>
<g filter="url(#filter3_i_4_105)">
<path d="M20.9974 52.1125C22.8469 52.5633 22.5213 56.6759 24.4011 56.6759C26.2809 56.6759 26.8721 54.3007 27.8048 52.1125C28.9257 49.4825 28.9393 44.5068 28.9393 44.5068L27.8048 42.9857C26.361 42.0688 25.9423 45.4644 24.4011 46.0279C23.1187 46.4968 22.2191 46.7299 20.9974 46.0279C19.8455 45.3661 18.7283 44.6659 18.7283 42.9857C18.7283 41.3055 20.7516 41.591 20.9974 39.9434C21.366 37.4721 19.3904 36.1212 17.5937 35.38C13.9508 33.8772 12.6542 41.0133 11.9209 46.0279C11.5798 48.3597 11.0416 50.0494 11.9209 52.1125C12.904 54.4191 14.4776 55.1547 16.4591 55.1547C18.4406 55.1547 19.0479 51.6372 20.9974 52.1125Z" fill="#BCB79C"/>
</g>
<defs>
<filter id="filter0_i_4_105" x="0.158325" y="0.369873" width="47.9995" height="70.9015" filterUnits="userSpaceOnUse" color-interpolation-filters="sRGB">
<feFlood flood-opacity="0" result="BackgroundImageFix"/>
<feBlend mode="normal" in="SourceGraphic" in2="BackgroundImageFix" result="shape"/>
<feColorMatrix in="SourceAlpha" type="matrix" values="0 0 0 0 0 0 0 0 0 0 0 0 0 0 0 0 0 0 127 0" result="hardAlpha"/>
<feOffset dx="2" dy="1"/>
<feGaussianBlur stdDeviation="2"/>
<feComposite in2="hardAlpha" operator="arithmetic" k2="-1" k3="1"/>
<feColorMatrix type="matrix" values="0 0 0 0 0 0 0 0 0 0 0 0 0 0 0 0 0 0 0.25 0"/>
<feBlend mode="normal" in2="shape" result="effect1_innerShadow_4_105"/>
</filter>
<filter id="filter1_i_4_105" x="4.53918" y="24.61" width="5.27667" height="9.06107" filterUnits="userSpaceOnUse" color-interpolation-filters="sRGB">
<feFlood flood-opacity="0" result="BackgroundImageFix"/>
<feBlend mode="normal" in="SourceGraphic" in2="BackgroundImageFix" result="shape"/>
<feColorMatrix in="SourceAlpha" type="matrix" values="0 0 0 0 0 0 0 0 0 0 0 0 0 0 0 0 0 0 127 0" result="hardAlpha"/>
<feOffset dy="1"/>
<feGaussianBlur stdDeviation="0.5"/>
<feComposite in2="hardAlpha" operator="arithmetic" k2="-1" k3="1"/>
<feColorMatrix type="matrix" values="0 0 0 0 0 0 0 0 0 0 0 0 0 0 0 0 0 0 0.25 0"/>
<feBlend mode="normal" in2="shape" result="effect1_innerShadow_4_105"/>
</filter>
<filter id="filter2_i_4_105" x="11.9159" y="3.25208" width="26.2087" height="24.4624" filterUnits="userSpaceOnUse" color-interpolation-filters="sRGB">
<feFlood flood-opacity="0" result="BackgroundImageFix"/>
<feBlend mode="normal" in="SourceGraphic" in2="BackgroundImageFix" result="shape"/>
<feColorMatrix in="SourceAlpha" type="matrix" values="0 0 0 0 0 0 0 0 0 0 0 0 0 0 0 0 0 0 127 0" result="hardAlpha"/>
<feOffset dy="1"/>
<feGaussianBlur stdDeviation="0.5"/>
<feComposite in2="hardAlpha" operator="arithmetic" k2="-1" k3="1"/>
<feColorMatrix type="matrix" values="0 0 0 0 0 0 0 0 0 0 0 0 0 0 0 0 0 0 0.25 0"/>
<feBlend mode="normal" in2="shape" result="effect1_innerShadow_4_105"/>
</filter>
<filter id="filter3_i_4_105" x="11.4428" y="35.1762" width="17.4966" height="22.4997" filterUnits="userSpaceOnUse" color-interpolation-filters="sRGB">
<feFlood flood-opacity="0" result="BackgroundImageFix"/>
<feBlend mode="normal" in="SourceGraphic" in2="BackgroundImageFix" result="shape"/>
<feColorMatrix in="SourceAlpha" type="matrix" values="0 0 0 0 0 0 0 0 0 0 0 0 0 0 0 0 0 0 127 0" result="hardAlpha"/>
<feOffset dy="1"/>
<feGaussianBlur stdDeviation="0.5"/>
<feComposite in2="hardAlpha" operator="arithmetic" k2="-1" k3="1"/>
<feColorMatrix type="matrix" values="0 0 0 0 0 0 0 0 0 0 0 0 0 0 0 0 0 0 0.25 0"/>
<feBlend mode="normal" in2="shape" result="effect1_innerShadow_4_105"/>
</filter>
</defs>
</svg>
