<svg width="47" height="39" viewBox="0 0 47 39" fill="none" xmlns="http://www.w3.org/2000/svg">
<g filter="url(#filter0_i_4_107)">
<path d="M36.38 36.0562C31.8417 39.0985 0.0738819 39.0985 0.0739136 36.0562C0.0739723 30.4207 4.0908 27.958 4.61216 22.366C4.9419 18.8293 2.43041 16.5153 3.47762 13.2392C5.35743 7.35853 15.9925 9.27059 20.4961 7.1547C26.5844 4.29428 30.2255 -1.52304 36.38 1.07017C42.0667 3.46629 45.8345 8.35416 46.5911 16.2815C47.4803 25.5981 42.646 31.8558 36.38 36.0562Z" fill="#D3CBA2"/>
</g>
<g filter="url(#filter1_i_4_107)">
<path d="M39.7837 23.8872C41.8821 21.699 37.7967 17.1283 39.7837 14.7604C42.3057 11.7548 44.5349 21.2606 43.1874 25.4083C42.0004 29.0617 39.3435 30.2773 36.38 29.9717C34.983 29.8276 33.967 29.7789 32.9763 28.4506C31.4098 26.3503 31.4098 22.9452 32.9763 20.8449C34.9578 18.1883 37.5717 26.1938 39.7837 23.8872Z" fill="#BCB79C"/>
</g>
<g filter="url(#filter2_i_4_107)">
<path d="M11.4196 14.7604C9.65106 14.9159 8.58225 14.093 6.8813 14.7604C3.24809 16.1861 12.2051 18.6559 15.9578 19.3238C18.1539 19.7147 19.7873 20.9714 21.6306 19.3238C23.2793 17.8502 22.536 15.1666 23.8998 13.2393C26.4145 9.68554 33.8624 14.9493 32.9763 10.197C32.5204 7.75197 31.3559 6.4306 29.5726 5.63361C26.7529 4.37346 25.4237 8.41489 22.7652 10.197C20.9929 11.3851 20.0968 12.36 18.227 13.2393C15.6837 14.4352 14.1089 14.524 11.4196 14.7604Z" fill="#D6C675"/>
</g>
<g filter="url(#filter3_i_4_107)">
<path d="M6.88131 31.4928C6.23565 29.5337 7.64399 27.6423 9.15044 26.9294C11.2395 25.9409 14.8781 28.987 13.6887 31.4928C12.9365 33.0777 11.6861 33.014 10.285 33.014C8.88388 33.014 7.4476 33.2111 6.88131 31.4928Z" fill="#98916C"/>
</g>
<defs>
<filter id="filter0_i_4_107" x="0.0739136" y="0.420532" width="48.6229" height="38.9174" filterUnits="userSpaceOnUse" color-interpolation-filters="sRGB">
<feFlood flood-opacity="0" result="BackgroundImageFix"/>
<feBlend mode="normal" in="SourceGraphic" in2="BackgroundImageFix" result="shape"/>
<feColorMatrix in="SourceAlpha" type="matrix" values="0 0 0 0 0 0 0 0 0 0 0 0 0 0 0 0 0 0 127 0" result="hardAlpha"/>
<feOffset dx="2" dy="1"/>
<feGaussianBlur stdDeviation="2"/>
<feComposite in2="hardAlpha" operator="arithmetic" k2="-1" k3="1"/>
<feColorMatrix type="matrix" values="0 0 0 0 0 0 0 0 0 0 0 0 0 0 0 0 0 0 0.25 0"/>
<feBlend mode="normal" in2="shape" result="effect1_innerShadow_4_107"/>
</filter>
<filter id="filter1_i_4_107" x="31.8014" y="14.183" width="11.7921" height="16.8338" filterUnits="userSpaceOnUse" color-interpolation-filters="sRGB">
<feFlood flood-opacity="0" result="BackgroundImageFix"/>
<feBlend mode="normal" in="SourceGraphic" in2="BackgroundImageFix" result="shape"/>
<feColorMatrix in="SourceAlpha" type="matrix" values="0 0 0 0 0 0 0 0 0 0 0 0 0 0 0 0 0 0 127 0" result="hardAlpha"/>
<feOffset dy="1"/>
<feGaussianBlur stdDeviation="0.5"/>
<feComposite in2="hardAlpha" operator="arithmetic" k2="-1" k3="1"/>
<feColorMatrix type="matrix" values="0 0 0 0 0 0 0 0 0 0 0 0 0 0 0 0 0 0 0.25 0"/>
<feBlend mode="normal" in2="shape" result="effect1_innerShadow_4_107"/>
</filter>
<filter id="filter2_i_4_107" x="6.03113" y="5.39432" width="27.018" height="15.7566" filterUnits="userSpaceOnUse" color-interpolation-filters="sRGB">
<feFlood flood-opacity="0" result="BackgroundImageFix"/>
<feBlend mode="normal" in="SourceGraphic" in2="BackgroundImageFix" result="shape"/>
<feColorMatrix in="SourceAlpha" type="matrix" values="0 0 0 0 0 0 0 0 0 0 0 0 0 0 0 0 0 0 127 0" result="hardAlpha"/>
<feOffset dy="1"/>
<feGaussianBlur stdDeviation="0.5"/>
<feComposite in2="hardAlpha" operator="arithmetic" k2="-1" k3="1"/>
<feColorMatrix type="matrix" values="0 0 0 0 0 0 0 0 0 0 0 0 0 0 0 0 0 0 0.25 0"/>
<feBlend mode="normal" in2="shape" result="effect1_innerShadow_4_107"/>
</filter>
<filter id="filter3_i_4_107" x="6.72049" y="26.7383" width="7.20163" height="7.28247" filterUnits="userSpaceOnUse" color-interpolation-filters="sRGB">
<feFlood flood-opacity="0" result="BackgroundImageFix"/>
<feBlend mode="normal" in="SourceGraphic" in2="BackgroundImageFix" result="shape"/>
<feColorMatrix in="SourceAlpha" type="matrix" values="0 0 0 0 0 0 0 0 0 0 0 0 0 0 0 0 0 0 127 0" result="hardAlpha"/>
<feOffset dy="1"/>
<feGaussianBlur stdDeviation="0.5"/>
<feComposite in2="hardAlpha" operator="arithmetic" k2="-1" k3="1"/>
<feColorMatrix type="matrix" values="0 0 0 0 0 0 0 0 0 0 0 0 0 0 0 0 0 0 0.25 0"/>
<feBlend mode="normal" in2="shape" result="effect1_innerShadow_4_107"/>
</filter>
</defs>
</svg>
