<svg width="430" height="161" viewBox="0 0 430 161" fill="none" xmlns="http://www.w3.org/2000/svg">
<path d="M8.55114 85.8667L0 93V157.933H15.8807L356.705 161H430V122.5V56.7333L415.341 49.0667H410.455L406.79 58.2667L399.46 59.8L406.79 41.4L400.682 39.8667L404.347 30.6667L399.46 33.7333L401.903 27.6L398.239 15.3333L394.574 6.13333L393.352 26.0667L390.909 23V35.2667L388.466 33.7333V39.8667H379.915V47.5333L375.028 46L377.472 64.4H364.034L365.256 56.7333L356.705 58.2667L353.04 53.6667L345.71 55.2L349.375 38.3333L338.381 46L340.824 39.8667L334.716 35.2667L338.381 29.1333L333.494 27.6H327.386L331.051 19.9333H322.5L320.057 10.7333L313.949 0L309.062 6.13333L307.841 18.4L300.511 15.3333L304.176 24.5333H299.29L291.96 27.6L294.403 38.3333L284.631 39.8667V53.6667L279.744 55.2L278.523 61.3333L279.744 70.5333L276.08 72.0667V78.2H272.415L267.528 75.1333L268.75 72.0667L266.307 67.4667L272.415 59.8H266.307V53.6667L260.199 52.1333L262.642 42.9333H257.756L252.869 35.2667L247.983 27.6V47.5333L244.318 39.8667V50.6L240.653 46L241.875 58.2667L234.545 50.6L236.989 62.8667L233.324 65.9333L235.767 79.7333L230.881 84.3333L225.994 82.8L230.881 73.6L222.33 76.6667V65.9333L221.108 59.8L217.443 55.2V65.9333L215 67.4667V76.6667L210.114 73.6V82.8H205.227L206.449 73.6H202.784L201.562 62.8667L205.227 58.2667L200.341 56.7333L202.784 52.1333L195.455 47.5333L191.79 42.9333L188.125 32.2L184.46 42.9333L186.903 46L184.46 50.6V53.6667L186.903 58.2667L184.46 62.8667L186.903 67.4667L185.682 70.5333L186.903 73.6L185.682 76.6667L186.903 79.7333H178.352V82.8L172.244 88.9333H164.915V82.8L166.136 76.6667H158.807L161.25 72.0667H156.364L152.699 67.4667V61.3333L149.034 53.6667L147.812 61.3333V67.4667H145.369V73.6L142.926 76.6667V82.8V88.9333L140.483 90.4667L138.04 85.8667L136.818 79.7333H129.489V73.6L120.938 72.0667L118.494 69L120.938 61.3333L116.051 62.8667V53.6667H111.165L112.386 47.5333L106.278 49.0667L107.5 44.4667L103.835 41.4V35.2667L100.17 32.2L102.614 26.0667L103.835 23L100.17 21.4667L97.7273 18.4V12.2667L94.0625 15.3333L95.2841 21.4667H92.8409L94.0625 29.1333L91.6193 36.8L86.733 39.8667L94.0625 42.9333L91.6193 50.6L87.9545 55.2L91.6193 58.2667V65.9333L87.9545 62.8667L83.0682 61.3333L81.8466 55.2L75.7386 58.2667L59.858 73.6L42.7557 79.7333L39.0909 76.6667L36.6477 72.0667L32.983 64.4H28.0966L30.5398 76.6667L26.875 79.7333V85.8667L24.4318 81.2667L23.2102 85.8667L19.5455 81.2667L18.3239 76.6667L14.6591 70.5333L13.4375 64.4L9.77273 67.4667V76.6667L8.55114 79.7333V85.8667Z" fill="#009B4D"/>
<path d="M288.553 43.5366L295.342 43.5366L297.605 35.9146L295.342 29L305.526 28.2927V20.5L310.5 23.5L314.579 10L317.974 19.1463V22.5L325.895 22.5L323 29L331.553 31.3415V35.9146L336.079 40.4878L334.947 49.6341H340.605L345.132 45.061L342.868 55.7317L347.395 58.7805L351.921 57.2561L355.316 61.8293L360.974 60.3049L362.105 66.4024L368.895 70.9756L372.289 66.4024H380.211L379.079 57.2561V51.1585L382.474 49.6342L383.605 43.5366H387L390 40.4878L391 37.5L393.5 35V29.5L396 25.2439L397.184 19.1463L399.447 25.2439L398.316 34.3902L400.579 35.9146L399.447 40.4878L402.842 43.5366L400.579 51.1585L397.184 60.3049L402.842 63.3537H407.368L413.026 52.6829L418.684 54.2073L427.737 61.8293H430V122.805L422.079 130.427L417.553 124.329H409.632L407.368 118.232L400.579 122.805L399.447 116.707L394.921 121.281L391.526 118.232V110.61L385.868 116.707L380.211 110.61L375.684 107.561L370.026 99.939L366.632 96.8902L362.105 95.3658L357.579 90.7927L353.053 84.6951L349.658 80.1219L345.132 74.0244L336.079 75.5488V87.7439L330.421 72.5V81.6463V93.8415L327.026 86.2195L321.368 95.3658L315.711 86.2195L312.316 96.8902L306.658 87.7439L301 98.4146L295.342 86.2195L289.684 95.3658L288.553 84.6951L282.895 96.8902L279.5 87.7439L270.447 96.8902L267.053 87.7439L261.395 89.2683L256.868 95.3658L252.342 87.7439L247.816 89.2683L243.289 95.3658L239.895 93.8414L231.974 92.3171L225.184 93.8414L219.526 93.8415L218.395 90.7927H216.132H212.737L209.342 92.3171H204.816L200.289 93.8415L194.046 92.3171L187.842 95.3658L181.053 93.8414L174.263 96.8902L165.211 95.3658L157.289 98.4146H150.5L143.711 96.8902L135.789 101.463L132.395 98.4146L124.474 102.988V93.8414L114.714 104.512L108.632 101.463L102.974 104.512L98.4474 96.8902L93.9211 109.085L84.8684 107.561L43 106.037L30.5526 119.756L22.6316 124.329L18.1053 116.707L15.8421 128.902H7.92105L0 135V97L10 90V84.6951V80L11.3158 76.5V70.5L13 68L14.7105 74.0244L15.8421 78.5976L17.5 84.5L22.6316 90.7927L25 86.5L28.2895 90V81.6463L32 76.5L30.5526 66.4024L33.5 68.5L38 78.5976L43 83L57.7105 78.5975L66.7632 69.4512L76.9474 60.3049L80 59L81.5 63.5L87.5 66.4024L92.7895 72L93.9211 59L92.7895 54L96 48.5L92.7895 40.4878L91.6579 35.9146L93.9211 28.2927L96 23L97.3158 20L101.842 24.5L99.5 30.5V34.5L101.842 37.5V41.5L104 45L105 48.5V51L110 50.5L109.5 55.5L114.714 56.1972L113.5 64L117.5 65.5L116.553 70.5L120 76.5L127 75.5L127.5 82.5L135.789 82.5V88.5L140 93.8415L145.974 90L145 82.5L144.5 77.5L148.5 75.5488V70.5L150.5 60.3049L151.5 70.5L158 75.5L157.289 79.5L163.5 78.5976L162.5 84L163.5 90.7927L168.5 92.3171L177 90.7927L181.053 81.6463H186.711L189.5 80.1219L188.5 77.5L190.5 73.5L188.5 70.9756L189 67L187 63L189.5 59L186.711 52.6829L189.5 45L194.046 49.6341L198.026 52.6829L196.895 57.2561L200.289 60.3049L199.158 69L200.289 74.5L202.553 78.5976V84.6951L212.737 84.6951L211.605 78.5975L216.132 80.1219L217 70.5L219.526 63L220.658 78.5975L226.316 77.0732L221.789 83.1707L226.316 86.2195L231.974 87.7439L235.368 84.6951L237.632 78.5975L237 70.5L239 64L244 62V55.7317L246 49.6341L249 51L250.079 35.9146L255.737 45.061L258 46.5854L256.868 54L263.658 55.7317L265.921 63.3537L263.658 64.878V67.9268L264.789 70.9756V74.0244L265.921 75.5488L268.184 80.1219L271.579 83.1707H276.105L277.237 81.6463L279.5 78.5976V74.5L281 72L282.5 70L282.895 67L280.632 63.3537L284.026 60.3049L281.763 58.7805L284.026 57.2561L286.289 55.7317L288.553 49.6341V43.5366Z" fill="#00AF50"/>
</svg>
